<?xml version="1.0" encoding="UTF-8"?><svg xmlns="http://www.w3.org/2000/svg" viewBox="0 0 558.95 203.08"><defs><style>.d{fill:#c09e17;}.e{fill:#dfbc26;}.f{fill:#ba9d22;}.g{fill:#f5c80e;}.h{fill:#416697;}.i{fill:#fbca05;}.j{fill:#f9ca09;}.k{fill:#f8c90a;}.l{fill:#243a6b;}.m{fill:#223e73;}.n{fill:#214a84;}.o{fill:#213263;}.p{fill:#bd9e1b;}.q{fill:#405a98;}.r{fill:#dcc239;}.s{fill:#fefefe;}</style></defs><g id="a"/><g id="b"><g id="c"><g><path class="q" d="M167.07,49.94c10.32-4.56,21.3-7.13,31.98-10.61,5.65-1.84,11.17-4.22,17.13-5.03,2.76,.46,1.81,4.13,4.23,4.89-1.62,3.79-1.83,7.6-.34,12.61,2.33-4.55,4.15-8.11,5.97-11.66,.84-2.87,2.55-5.1,5.02-6.77,5.4,2.72,8.99,7.61,13.53,11.36,4.47,3.69,8.68,7.7,12.97,11.61,4.89,4.44,5.24,4.44,10.92-.26,9.69-3.45,9.92-4.13,3.86-11.42-.1-.12-.14-.29-.21-.44,2.69-1.34,4.01-4.08,5.48-6.31,3.04-4.63,8.84-7.35,9.49-13.6,5.34-1.4,5.89-7.48,9.94-10.14,2.09-2.28,4.47-4.36,6.2-6.88,2.08-3.02,4.45-5.16,8.22-5.36l-.13,.22-.22-.13c.48,.37,.95,.74,1.43,1.11,5.86,8.67,11.66,17.38,17.63,25.98,1.53,2.21,.72,3.04-1.27,4.08-8.39,4.38-16.71,8.88-26.57,14.15,12.08,.78,21.11,5.57,29.6,11.6,1.04,3.45,4.19,5.13,6.44,8.45,1.66-8.53,3.16-16.24,4.66-23.96,9.02-.85,18.05-.29,27.08-.18,1.72,1.5,3.35-.4,5.12-.13,3.44,.52,4.47-1.23,3.4-4.4l.23,.26c.71,.06,1.41,.12,2.12,.17,8.97,0,17.94,.01,26.91,.02,2.51,0,5.08-.13,6.38,2.71,.2,1.12,.39,2.24,.59,3.36-.8,2.48-1.22,4.9,1.05,6.9,1.61,9.97,3.3,19.93,4.78,29.92,.43,2.87,1.05,3.72,3.89,2.01,6.04-3.65,12.63-5.99,19.75-5.9,3.99,.05,2.57-2.98,3.4-4.76,.94,1.36-.45,4,1.4,4.41,4.93,1.09,9.96,3.78,16.22-.34-10.32,.9-8.22-5.7-8.33-10.94-.03-1.48-.07-2.96-.11-4.45,.03-4.85,.05-9.7,.08-14.55,16.32,3.55,32.63,7.16,48.97,10.6,3.39,.71,1.72,4.45,3.95,5.69-1.26,3.51-.06,6.31,2.47,9.68,.69-2.83,1.53-4.74,1.52-6.64-.01-2.37,1.06-4.1,2.23-5.9,13.56,3.22,27.11,6.46,40.68,9.63,3.41,.8,1.85,2.82,1.27,4.54-8.81,26.29-17.66,52.58-26.49,78.86-4.23,12.59-8.41,25.2-12.73,37.77-.62,1.81-.61,4.01-2.45,5.29-8.67-2.75-17.3-5.6-26.01-8.19-3.76-1.12-5.7-2.65-5.64-7.18,.1-7-.97-7.64-7.78-8.48-5.74-.71-11.47-1.42-17.2-2.17-5.89-.77-6.61-1.78-5.3-7.78,.61-2.78,.68-5.51,.33-8.27-3.05-.36-5.11,1.95-7.78,2.15-3.76,.06-7.39,1.45-11.22,1.03-3.08-.34-2.83,1.94-2.77,3.95,.47,3.1,.9,6.21,1.43,9.3,.23,1.35,.04,2.29-1.48,2.54-1.63-1.25-3.59-1.51-5.53-1.85-13.12-2.33-26.24-4.68-39.36-7.02-.68-5.78-.64-11.67-2.35-17.53-3.65,1.95-3.34,6.19-6.54,8.36-3.1-5.21-6.15-10.34-9.47-15.93-1.81,4.29-2.32,8.18-2.71,12.1-.85,.06-1.64,.21-2.03,1.11-.33-.04-.66-.09-1-.13-2.47-3.17-6.25-2.27-9.47-2.9-9.49-1.88-19.2-2.52-28.59-5-.02-4.13,.41-8.15,1.86-12.08,.6-1.62,1.08-4.14-.23-5.17-1.59-1.25-3.19,.8-4.65,1.74-.28,.18-.56,.35-.84,.52-7.31,2.04-14.44,4.65-21.95,6.04-3.2,.59-2.31,2.58-.65,4.31-1.92,4.98-.71,10.16-.98,15.25-.28,5.11-.32,10.23-.47,15.34-3.4-.27-6.19-2.06-9.18-3.46-7.18-3.34-13.67-8.24-21.67-9.74-.58-2.36-2.85-2.62-4.53-3.48-10.19-5.17-20.42-10.26-30.68-15.31-2.62-1.29-6.26-3.93-7.87-3.06-2.4,1.29-.69,5.38-.93,8.26-.03,6.37-.01,12.74-.12,19.1-.02,1.42,.86,3.5-1.82,3.72-1.3,.13-2.61,.22-3.9,.4-10.37,1.47-20.74,2.97-31.11,4.45-.07-3.45,.03-6.91-.27-10.33-.15-1.71-.54-4.19-1.68-4.84-1.87-1.08-2.85,1.41-4.13,2.57-1.45,1.31-3.03,2.48-4.55,3.71l-1.51,.92c-.7-.72-.79-.21-.82,.41l.1-.14c-.79,.15-1.64,.16-2.37,.47-7.51,3.17-15.09,4.93-23.42,3.55-5.79-.96-10.99-3.2-16.33-5.27-4.01-4.65-8.03-9.31-12.04-13.96-1.02-5.95-3.08-11.72-3.1-17.84,0-1.09-.67-2.35-1.73-1.47-2.19,1.83-5.78,3.42-5.04,6.74,1.09,4.9,.92,10.18,3.74,14.64-.21,2.79,.23,5.33,2.69,7.11-.07,.2-.2,.29-.41,.26,.16,7.31,2.88,14.08,4.75,20.99,1.19,4.38,.79,7.25-3.86,8.64-2.06-.33-3.93,.41-5.82,1.03-7.24,2.37-14.51,4.64-21.68,7.2-3.93,1.41-6.58,1.01-8.18-3.32-1.61-4.34-3.47-8.62-5.56-12.75-4.62-9.13-7.09-19.33-13.65-27.48-.19-4.02-1-7.81-4.09-10.73-1.76-7.54-5.63-14.16-9.08-20.97-1.72-4.64-3.41-9.28-5.16-13.9-1.04-2.73-2.89-2.06-4.85-1.09-6.03,3-6.05,2.9-9.46-2.86-4.78-8.09-9.69-16.1-14.55-24.14-1.87-4.34-4.53-8.21-7.14-12.11,16.6-12.46,35.16-20.58,55.42-24.83,12.85-2.69,25.81-3.16,38.62-.05,18.27,4.43,31.34,14.85,36.57,33.58,1.48,5.31,.54,10.8,.57,17.03,9.74-6.42,19.98-8.49,30.87-7.66,1.58,.37,3.25,.55,4.74,1.15,4.1,1.63,5.6,1.24,4.54-3.86-1.36-6.58-.94-6.67-7.2-5.17-3.37-4.92-3.11-10.53-3.06-16.1-.29-3.36,.86-6.84-.87-10.07l-.15-1.13Zm12.49,96.53l.72-1.15h.02c.79-.04,1.46-.25,1.8-1.06,.83-.4,1.27-1.04,1.22-1.98,.25-.41,.49-.81,.74-1.22,2.67-1.36,3.06-4.24,4.18-6.54,4.73-9.72,4.2-24.27-3.15-31.25-.08-.24-.24-.33-.49-.27l-1.36-1.03,.07-.17c-.24-1.86-1.74-2.79-3.01-3.75-10.11-7.57-27.94-6.29-37.51,2.63l-.02,.19-1.02,.83h-.07c-2.74,.81-4.63,2.58-5.84,5.13l-.05,.05c-1.61,.48-2.48,1.59-2.74,3.22h.01c-1.97,1.07-2.72,2.89-3.06,4.97h.02c-7.16,10.64-6.29,25.17,2.05,34.09h0c.24,1.05,.82,1.81,1.89,2.12l-.03-.02c.2,1.1,1.07,1.59,1.89,2.18,12,8.72,28.7,7.36,40.27-3.3h0l1.04-.98-.02,.02c1.32-.41,2.1-1.3,2.37-2.64l.03-.09Zm205.33-75.14c-.77,.44-.76,1.12-.58,1.86-1.94,3.02-.56,6.96-3.11,10.5-1.74-9.44-3.47-18.34-4.97-27.28-.41-2.44-1.39-3.46-3.86-3.42-5.8,.09-11.61,.14-17.42,0-3.08-.07-4.31,1.13-3.75,4.15-2.23,12.6-4.28,25.24-6.78,37.79-.75,3.79-.28,6.52,3,8.57,3.54,2.21,3.26,4.32,.22,6.91-4.34,3.69-8.23,7.7-8.48,14.02-.12,3.14-.67,6.3-1.42,9.36-.56,2.29-.09,3.54,2.24,3.96,5.89,1.07,11.77,2.14,17.67,3.17,2.3,.4,3.13-.64,3.46-2.97,1.19-8.39,2.62-16.75,4-25.11,.26-1.6,.11-3.93,1.75-4.35,2.18-.56,2.01,2.08,2.8,3.36,.69,1.12,1.1,2.42,1.73,3.59,3.39,6.2,5.24,13.19,9.86,19.75,3.06-7.41,5.82-14.1,8.58-20.79,1.5,2.3,2.05,4.22,2.34,6.18,1.62,10.86,3.23,21.72,4.72,32.6,.33,2.43,1.02,3.86,3.78,4.29,5.7,.88,11.33,2.29,17.16,2.19,1.61,.61,3.36,1.25,4.11-1,.5-1.52-.08-2.93-1.56-3.84-.85-.52-1.63-1.14-2.48-1.65-11.12-6.81-16.2-16.93-16.91-29.76-.38-6.88,2.59-12.87,4.05-19.26,.18-.19,.28-.42,.28-.68,1.58-.47,1.93-1.7,1.92-3.14l.02-.04c2.6-2.37,5.39-4.81,4.85-8.72-1.9-13.63-3.98-27.24-6.02-40.85-.22-1.49-.55-2.83-2.39-3.37-11.75-3.48-16.68,.2-16.75,12.62l-.22,1.18c-2.21,2.97-1.73,6.41-1.72,9.77,0,0-.11,.41-.11,.4Zm104.1,61.01l.1-.28c1.6-.9,.31-2.87,1.43-3.96,2.6,3.31,.61,7.41,2.02,10.89,.46,1.43,.43,2.86,.06,4.3-.8,5.95-1.27,11.89,.25,17.81,.12,4.76,.28,9.53,.35,14.29,.04,2.97,1.01,5,4.27,5.63,2.89,.56,5.71,1.52,8.55,2.3,5.25,3.94,5.65-.94,6.65-3.89,5.34-15.7,10.53-31.45,15.78-47.18,5.51-16.53,10.95-33.08,16.61-49.55,1.37-3.98,.43-5.73-3.71-6.42-5.22-.88-10.42-2.03-15.54-3.37-4.03-1.05-5.29,.42-4.7,4.23-4.17,13.4-7.06,27.13-10.33,40.76-1.94-.13-1.66-1.7-1.92-2.94-3.13-14.94-6.38-29.85-9.33-44.82-.65-3.28-2.46-4.31-5.29-4.85-7.81-1.48-15.66-2.84-23.4-4.67-4.48-1.06-5.47,.6-4.79,4.52l-.04,.1c-.9,.54-1.17,1.1-.06,1.71,.16,1.21,1.12,1.77,2.07,1.85,5.02,.46,5.05,3.41,4.27,7.39-1.23,6.26-1.71,12.53,4.01,17.28,.36,.3,.52,.84,.78,1.27,8.94,14.99,5.76,35.52-8.38,49.23-5.01,4.85-4.83,10.94-4.11,16.02,.54,3.86,7.05,2.62,10.99,3.35,.16,.03,.33,.01,.5,.02,4.02,1.8,6.72,1.8,7.43-3.76,.84-6.55,2.5-13,3.8-19.5,.09-.07,.27-.16,.27-.22-.02-.21-.1-.41-.16-.61,.14-.71,.27-1.42,.41-2.13,2.09-1.17,.92-3.15,1.2-4.78ZM193.17,99.12c1.31,2.89,2.68,5.74,4.67,8.24l.15-.21-.18,.19c3.12,11.42,3.28,22.69-2.5,33.35-3.36,6.2-2.3,13.06-.05,18.23,1.72,3.94,8.38-.24,12.85,.02,.3,.02,.62-.21,.93-.33,4.68,.97,4.72-2.25,4.76-5.35,.15-11.36,.26-22.72,.38-34.08,10.42,5.11,20.85,10.18,31.25,15.33,12.6,6.23,25.17,12.52,37.76,18.79,4.52,2.93,5.38,2.66,5.62-2.18,.19-3.81,.07-7.64,0-11.46-.05-2.31-.61-4.04-3.54-4.44-11.92-1.61-21.67-7.17-28.59-17.07-2.53-3.63-5.81-5.49-9.69-7.22-7.38-3.29-15.51-4.91-22.14-9.84,1.32-1.46,2.63-2.94,3.98-4.39,7.41-7.94,14.82-15.88,22.23-23.82,5.17-3.77,5.07-3.87,.4-8.1-4.52-4.09-8.82-8.44-13.18-12.71q-4.82-4.73-8.18,1.14c-5.74,7.96-11.48,15.93-17.21,23.89-2.87,.35-2.7-1.7-2.79-3.54-.38-7.31-.74-14.62-1.17-21.93-.09-1.51,.35-3.93-2.4-3.18-9.24,2.52-18.61,4.62-27.44,8.45-2.2,5.97-1.51,7.12,4.18,6.37,2.82-.37,3.76,.48,3.92,3.34,.48,8.23,1.44,16.44,1.85,24.68,.17,3.45,1.21,6.04,4.13,7.85h.01ZM305.09,19.19c-6.45,6.19-11.56,13.53-17.44,20.21-.98,1.11-1.3,2.28-.5,3.61,1.1,1.81,2.47,.53,3.43,.02,7.74-4.07,15.99-7.13,23.38-11.88,5.57-1.78,5.58-1.86,2.28-6.28-1.58-2.12-2.97-4.38-4.59-6.47-3.35-4.35-3.71-4.28-6.57,.79Zm159.76,114.95l.1-.15c7.04-6.75,8.89-15.35,7.95-24.52-1.02-9.9-6.43-16.99-15.91-20.4-10.32-3.71-20.09-2.6-28.89,4.33-10.33,5.73-15.94,14.76-17.69,26.18-2.15,14.02,7.69,27.72,21.43,29.32,13.15,1.53,24.12-3.05,32.29-13.73,.6-.09,.84-.44,.72-1.03ZM121.35,104.32c4.86-5.53,6.35-12.32,6.6-19.33,.5-14.16-10.33-27.75-26.26-31.66-28.24-6.94-53.79,1.32-78.08,15.3-1.43,.82-2.45,1.91-.76,3.49,3.27,5.77,6.47,11.59,9.84,17.3,3.57,6.05,3.74,6.18,9.95,2.91,3.13-1.65,4.46-1.18,5.91,2.12,11.35,25.87,22.97,51.62,34.35,77.48,5.9,13.41,5.76,13.48,19.48,8.95,.61-.2,1.14-.64,1.71-.97,4.32,.2,4.42-2.14,3.57-5.49-3.74-14.8-7.36-29.63-11.01-44.46,7.57-5.5,15.32-10.81,20.51-18.9,.54-.07,.86-.29,.65-.9l.51-.9c.6-.1,.84-.45,.72-1.05,.23-.21,.36-.46,.41-.77,1.59-.46,1.91-1.7,1.91-3.13Zm152.14-37.96c-10.89,7.23-15.35,17.61-14.24,30.33,1.02,11.83,7.01,20.48,17.91,25.61,15.36,7.23,41.17,2.3,53.83-10.37,5.67-3.84,5.67-4.1,.75-8.29-2.65-2.26-5.26-4.58-7.7-7.05-3.07-3.1-5.33-2.88-7.03,1.24-5.86,3.46-11.56,7.47-20.02,5.97,9.17-9.9,17.78-19.19,26.39-28.49,1.66-1.95,5.99-2.84,2.56-6.77-13.01-14.9-39.03-13.84-52.45-2.18Zm-24.24,34.87c-.16-3.64-.31-6.99-.49-11.17-3.08,2.92-5.54,5.26-8.3,7.88,2.99,1.56,5.59,2.8,8.79,3.3Zm85.3-22.07c-1.1,1.45-2.22,2.89-3.31,4.34-.83,1.1-2.79,1.94-1.47,3.65,1.08,1.39,2.6,3.32,4.01,3.39,2.38,.12,.96-2.57,1.59-3.92,.99-2.11,1.05-4.39-.82-7.46Z"/><path class="o" d="M61.36,152.86c6.56,8.16,9.03,18.36,13.65,27.49,2.09,4.13,3.95,8.41,5.56,12.75,1.61,4.33,4.25,4.73,8.18,3.32,7.17-2.56,14.45-4.83,21.68-7.2,1.89-.62,3.76-1.36,5.82-1.03-1.19,2.7-3.72,3.62-6.2,4.43-10.24,3.32-20.54,6.49-30.77,9.84-4.08,1.34-6.51,.76-8.39-3.75-8.52-20.45-17.43-40.74-26.21-61.09,.17-.15,.34-.31,.5-.46,2.79,4.61,5.45,9.3,8.43,13.78,1.85,2.79,4.48,4.02,7.74,1.93Z"/><path class="o" d="M447.04,157.15c2.66-.2,4.72-2.51,7.78-2.15,.35,2.76,.28,5.49-.33,8.27-1.32,6-.59,7.01,5.3,7.78,5.73,.75,11.46,1.46,17.2,2.17,6.81,.84,7.88,1.48,7.78,8.48-.06,4.52,1.87,6.06,5.64,7.18,8.71,2.59,17.35,5.44,26.01,8.19-5.43,4.38-11.02,5.48-17.75,2.43-5.69-2.58-11.84-4.29-17.93-5.8-4.26-1.06-5.88-2.94-5.67-7.45,.33-7.02,0-7.01-6.82-7.99-6.89-.99-13.76-2.13-20.66-2.98-2.3-.28-3.19-.9-2.74-3.37,.65-3.58,.96-7.22,1.42-10.83,1.21-1.12,.65-2.59,.78-3.92Z"/><path class="n" d="M14.16,79.17c4.86,8.04,9.77,16.05,14.55,24.14,3.4,5.76,3.43,5.86,9.46,2.86,1.96-.98,3.81-1.64,4.85,1.09,1.76,4.62,3.45,9.27,5.16,13.9-.63,.17-1.5,.14-1.85,.56-2.52,2.95-3.61,1.54-5.78-.87-2.24-2.48-2.69-6.55-6.49-7.63-3.52,.06-6.92,4.4-9.47,2.71-3.8-2.51-5.36-7.56-7.42-11.8,.12-.2,.24-.4,.36-.61l-.76-.05,.14,.04c-.27-.43-.54-.86-.82-1.29h0c.05-1.78,.05-3.54-2.33-3.84l.11,.1c.21-1.04,.18-1.94-1.22-2l.08,.08c-.37-2.9,.17-6.34-4.15-6.85l-.02-.15c.23-4.34,1.69-8.02,5.58-10.4Z"/><path class="o" d="M365.02,153.23c.39-.9,1.18-1.05,2.03-1.11-.21,2.3,.89,4.23,2.07,5.97,2.02,2.98,4.02,6.06,8.27,2.23,1.45-1.3,3.5-.33,3.63,2.17,.08,1.59,.02,3.19,.02,4.78,2-2.81,4.68-2.03,7.07-2.15,13.12,2.34,26.24,4.69,39.36,7.02,1.94,.34,3.9,.6,5.53,1.85-4.69,3.75-9.7,4.54-15.71,3.2-11.3-2.53-22.76-4.38-34.19-6.25-3.35-.55-5.04-1.91-4.9-5.32,.14-3.29-1.47-3.18-3.58-1.78-2.55,1.69-3.98,1.06-5.13-1.77-1.24-3.05-2.97-5.91-4.48-8.85Z"/><path class="m" d="M223.17,144.35c.24-2.88-1.47-6.98,.93-8.26,1.62-.87,5.25,1.77,7.87,3.06,10.26,5.04,20.49,10.14,30.68,15.31,1.69,.85,3.95,1.12,4.53,3.48-.38,1.33,.63,3.37-1.28,3.86-1.88,.48-3.39-.73-4.54-2.28-3.13-4.17-4.74-4.26-8.23-.53-9.99-4.88-19.98-9.76-29.96-14.64Z"/><path class="o" d="M115.37,158.55c.21,.02,.35-.07,.41-.27,2.36,.68,4.52,1.62,5.98,3.82,.77,1.16,2,2.71,3.54,1.21,2.05-2,3.98-.19,5.96-.25,5.34,2.07,10.54,4.31,16.33,5.27,8.33,1.39,15.91-.38,23.42-3.55,.72-.31,1.57-.32,2.37-.47-16.99,16.67-44.71,13.91-58-5.78Z"/><path class="l" d="M253.14,158.99c3.49-3.73,5.1-3.64,8.23,.53,1.16,1.54,2.67,2.76,4.54,2.28,1.9-.49,.9-2.53,1.28-3.86,8.01,1.5,14.49,6.4,21.67,9.74,2.99,1.39,5.78,3.19,9.18,3.46-5.79,5.67-8.72,6.26-15.32,2.92-9.87-5-19.72-10.04-29.58-15.07Z"/><path class="l" d="M325.95,145.19c9.39,2.47,19.1,3.12,28.59,5,3.23,.64,7-.26,9.47,2.9-4.16,3.52-8.8,3.74-13.98,2.67-8.94-1.84-17.98-3.23-26.98-4.81-.03-2.18-2.2-1.43-3.02-2.14,.8-3.22,4.02-2.25,5.91-3.63Z"/><path class="m" d="M34.07,113.22c3.8,1.08,4.25,5.15,6.49,7.63,2.17,2.4,3.25,3.82,5.78,.87,.35-.41,1.22-.38,1.85-.56,3.45,6.81,7.32,13.43,9.08,20.97-2.45,.41-3.89-1.17-5.34-2.72-1.83-1.95-3.91-3.38-6.75-3.27,0-.33,0-.66-.01-.99,.2-2.08-.61-3.21-2.83-3-2.75-6.31-5.51-12.62-8.26-18.94Z"/><path class="n" d="M168.1,61.15c-.05,5.57-.32,11.18,3.05,16.1-.71,1.36-1.41,2.72-2.12,4.08-1.34-2.39-3.28-1.08-4.77-.5-3.97,1.55-5.05-.56-5.12-3.82-.1-4.95,.02-9.91,.05-14.87h.91c2.66-.33,5.32-.66,7.99-.99Z"/><path class="l" d="M186.22,172.03c10.37-1.49,20.74-2.98,31.11-4.45,1.29-.18,2.6-.27,3.9-.4-3.93,2.81-8.1,4.78-13.04,5.36-9.34,1.1-18.65,2.56-27.94,4.04-2.31,.37-3.39,.03-3.44-2.53-.07-3.29-.39-6.58-.6-9.88,1.25,1.58,1.69,3.46,1.88,5.4,.65,6.78,.62,6.77,6.3,3.06,.52-.34,1.22-.41,1.83-.6Z"/><path class="n" d="M456.91,62.1c.04,1.48,.08,2.96,.11,4.45,.11,5.25-1.99,11.85,8.33,10.94-6.27,4.13-11.3,1.44-16.22,.34-1.85-.41-.47-3.05-1.4-4.41,.02-.79,.03-1.57,.05-2.36,.87-.33,1.14-.98,1.24-1.88q.74-6.76,7.9-7.09Z"/><path class="l" d="M14.16,79.17c-3.89,2.38-5.35,6.06-5.58,10.4-2.61-4.24-5.14-8.53-7.85-12.71-1.13-1.74-.96-2.95,.55-4.3,1.98-1.76,3.83-3.66,5.74-5.5,2.61,3.9,5.27,7.77,7.14,12.11Z"/><path class="o" d="M325.95,145.19c-1.89,1.38-5.11,.41-5.91,3.63,.82,.71,2.99-.04,3.02,2.14q-6.7-.66-5.49-7.16c.6-3.23,1.14-6.47,1.71-9.71,.88-1.34,2.62-2.06,2.8-3.9,.28-.17,.56-.34,.84-.52,1.47-.94,3.06-2.99,4.65-1.74,1.31,1.03,.83,3.55,.23,5.17-1.45,3.94-1.88,7.96-1.86,12.08Z"/><path class="n" d="M343.03,43.43c-1.5,7.72-3,15.44-4.66,23.96-2.25-3.33-5.4-5.01-6.44-8.45,.41-2.77,.58-5.6,1.27-8.3,1.27-4.98,6.38-5.02,9.83-7.21Z"/><path class="l" d="M456.91,62.1q-7.14,.33-7.9,7.09c-.1,.89-.38,1.55-1.24,1.88-.04-.99-.07-1.97-.11-2.96,.68-.99,.67-1.95-.08-2.9-.08-1.14-.21-2.28-.24-3.41q-.25-10.36,9.66-14.25c-.03,4.85-.05,9.7-.08,14.55Z"/><path class="n" d="M186.22,172.03c-.62,.19-1.32,.26-1.83,.6-5.68,3.71-5.66,3.72-6.3-3.06-.18-1.94-.62-3.82-1.88-5.4-.2-.34-.4-.69-.6-1.03,1.52-1.23,3.1-2.4,4.55-3.71,1.28-1.16,2.26-3.64,4.13-2.57,1.13,.65,1.53,3.13,1.68,4.84,.3,3.43,.2,6.89,.27,10.33Z"/><path class="h" d="M287.1,24.31c-.65,6.24-6.45,8.96-9.49,13.59-1.46,2.23-2.79,4.98-5.48,6.31-2.81-.24-4.59,3.29-7.66,2.11,6.15-7.66,12.55-15.09,19.33-22.21l1.27-1.05-.15,.02c.87,.15,1.74,.29,2.17,1.22Z"/><path class="l" d="M264.47,46.32c3.07,1.18,4.84-2.35,7.66-2.11,.07,.15,.11,.32,.21,.44,6.05,7.3,5.83,7.97-3.86,11.42-1.65-1.99-3.28-4-4.96-5.96-.87-1.02-1.1-1.94,.07-2.87,.37-.02,.57-.22,.6-.58l.28-.34Z"/><path class="m" d="M322.09,130.19c-.18,1.84-1.92,2.56-2.8,3.9-3.26-.59-5.19,2.22-7.9,3.11-3.93,1.29-7.69,3.07-11.9,3.34-1.66-1.73-2.55-3.72,.65-4.31,7.51-1.38,14.64-4,21.95-6.04Z"/><path class="m" d="M169.03,81.33c.71-1.36,1.41-2.72,2.12-4.08,6.26-1.5,5.84-1.42,7.2,5.17,1.05,5.1-.44,5.49-4.54,3.86-1.5-.59-3.16-.78-4.74-1.15-.01-1.27-.02-2.54-.03-3.8Z"/><path class="m" d="M311.47,1.92c-3.78,.21-6.14,2.35-8.22,5.36-1.74,2.52-4.11,4.6-6.2,6.88-1.69,.32-3.38,.65-5.08,.97,4.25-5.69,8.47-11.4,15.43-14.11,1.57-.61,3.37-2.37,4.07,.9Z"/><path class="h" d="M414.27,41.89c-1.3-2.84-3.87-2.71-6.38-2.71-8.97,0-17.94-.02-26.91-.02,0-.44,0-.88,.01-1.32,10.09-.1,20.17-.15,30.26-.31,3.38-.05,3.08,2.18,3.02,4.37Z"/><path class="m" d="M220.41,39.19c-2.42-.76-1.46-4.43-4.23-4.89,4.56-3.21,2.66,2.1,3.94,3.09,3.94-.77,6.55-4.78,10.94-4.01-2.47,1.67-4.17,3.9-5.01,6.77-1.88-.32-3.76-.63-5.63-.95Z"/><path class="n" d="M291.96,15.13c1.69-.32,3.38-.65,5.08-.97-4.05,2.66-4.6,8.74-9.94,10.14-.43-.92-1.3-1.07-2.17-1.22,2.03-2.93,4.26-5.69,7.04-7.95Z"/><path class="m" d="M447.04,157.15c-.13,1.33,.43,2.8-.78,3.92-.07-2.32-1.24-2.08-2.86-1.37-3.29,1.45-6.83,1.89-10.35,2.44-.06-2.01-.31-4.29,2.77-3.95,3.83,.42,7.45-.98,11.22-1.03Z"/><path class="n" d="M516.13,60.97c-1.17,1.8-2.24,3.52-2.23,5.9,0,1.91-.83,3.82-1.52,6.64-2.53-3.37-3.73-6.17-2.47-9.68,1.98-1.16,3.7-2.86,6.22-2.86Z"/><path class="l" d="M160.11,62.14h-.91c-.6-9.25-2.86-6.77,7.87-12.2,.05,.38,.1,.76,.15,1.14-1.1,1.21-1.98,3.01-3.34,3.52-3.81,1.43-4.08,4.25-3.78,7.54Z"/><path class="l" d="M378.63,38.72c1.07,3.17,.05,4.92-3.4,4.4-1.77-.27-3.4,1.63-5.12,.13,2.7-1.77,5.39-3.57,8.52-4.53Z"/><path class="l" d="M8.6,89.72c4.32,.5,3.78,3.95,4.15,6.85-1.38-2.28-2.76-4.56-4.15-6.85Z"/><path class="h" d="M415.91,52.16c-2.27-2.01-1.85-4.43-1.05-6.9,.63,2.26,1.27,4.52,1.05,6.9Z"/><path class="l" d="M42.33,132.16c2.23-.21,3.03,.92,2.83,3-.51,.01-1.02,.02-1.53,.03-.43-1.01-.87-2.02-1.3-3.03Z"/><path class="l" d="M13.77,98.38c2.38,.31,2.39,2.06,2.33,3.84-1.2-1.03-1.88-2.37-2.33-3.84Z"/><path class="q" d="M447.58,65.21c.75,.95,.76,1.91,.08,2.9-.53-.95-.52-1.92-.08-2.9Z"/><path class="l" d="M380.99,37.83c0,.44,0,.88-.01,1.32-.71-.06-1.41-.11-2.12-.17,.25-1.25,1.24-1.11,2.13-1.15Z"/><path class="l" d="M12.66,96.48c1.4,.06,1.43,.96,1.22,2-.41-.66-.81-1.33-1.22-2Z"/><path class="o" d="M43.63,135.19c.51-.01,1.02-.02,1.53-.03,0,.33,0,.66,.01,.99,0,.33,0,.66,.01,.99-.16,.16-.33,.31-.5,.46-.35-.81-.7-1.61-1.05-2.42Z"/><path class="m" d="M312.54,3.13c-.48-.37-.95-.74-1.43-1.11,.9-.18,1.15,.49,1.43,1.11Z"/><path class="n" d="M285.07,23.06l-1.27,1.05,1.27-1.05Z"/><path class="h" d="M264.19,46.67c-.03,.37-.23,.56-.6,.58,.02-.38,.22-.58,.6-.58Z"/><path class="l" d="M16.1,102.23c.27,.43,.54,.86,.82,1.29-.27-.43-.54-.86-.82-1.29Z"/><path class="o" d="M173.28,164.46c.03-.62,.12-1.12,.82-.41-.16,.37-.43,.5-.82,.41Z"/><path class="l" d="M16.78,103.48l.76,.05c-.12,.2-.24,.4-.36,.61-.3-.12-.43-.33-.4-.65Z"/><path class="j" d="M119.44,107.45c-.05,.3-.18,.56-.41,.76-.24,.35-.48,.7-.72,1.05-.17,.3-.34,.6-.51,.9-.22,.3-.44,.6-.66,.9-5.19,8.09-12.94,13.4-20.51,18.9-2.6,1.56-5.18,3.02-4.13,6.91,3.88,14.34,6.98,28.89,11.57,43.04-.57,.33-1.1,.77-1.71,.97-13.72,4.53-13.58,4.46-19.48-8.95-11.38-25.86-23-51.61-34.35-77.48-1.45-3.3-2.77-3.77-5.91-2.12-6.21,3.26-6.37,3.14-9.95-2.91-3.37-5.71-6.57-11.53-9.84-17.3,.66-1.98,2.51-2.52,4.1-3.37,13.77-7.35,28.44-12.13,43.94-13.37,13.62-1.09,27.21-.48,38.9,8.48,10.58,8.12,15.94,18.23,13.31,31.79-.56,2.89-2.48,5.51-1.74,8.66-1.5,.51-1.81,1.76-1.91,3.13Zm-37.42-24.52l-.08,.14c-4.38,1.36-2.84,4.58-2.08,7.28,2.49,8.86,5.2,17.66,7.74,26.5,1.48,5.17,1.99,5.33,6.58,1.49,4.86-3.48,9.82-6.83,13.06-12.06,3.69-5.95,4.22-12.4,1.37-18.58-2.67-5.8-8.24-7.81-14.36-8.3-3.6-.29-6.81,1.31-10.21,1.97-1.23-.2-1.87,.37-2.02,1.56Z"/><path class="k" d="M506.03,183.3c-2.85-.78-5.66-1.74-8.55-2.3-3.26-.63-4.23-2.65-4.27-5.63-.07-4.76-.23-9.53-.35-14.29,.26-5.94,.4-11.88-.25-17.81,.38-1.44,.4-2.87-.06-4.29,.73-7.36,.06-14.64-1.38-21.87-3.21-.2-3.73,2.04-4.17,4.47-2.27,12.37-4.66,24.71-6.84,37.09-.45,2.59-1.16,4.47-4.09,4.66-.17,0-.34,.01-.5-.02-3.94-.73-10.45,.51-10.99-3.35-.71-5.09-.9-11.17,4.11-16.02,14.15-13.71,17.33-34.24,8.38-49.23-.26-.43-.42-.97-.78-1.27-5.72-4.75-5.24-11.02-4.01-17.28,.78-3.98,.75-6.93-4.27-7.39-.95-.09-1.91-.65-2.07-1.85,.02-.57,.04-1.14,.06-1.71l.04-.1c8.74,1.74,17.49,3.45,26.22,5.27,1.5,.31,2.44,1.26,2.8,3.05,2.91,14.57,5.98,29.11,8.91,43.68,.39,1.93,.32,4.94,1.84,5.27,2.3,.5,3.7-2.12,4.95-4.02,.08-.12,.01-.33,.01-.49,3.27-13.63,6.16-27.35,10.33-40.76,5.46,1.32,10.87,3.07,16.41,3.81,4.02,.54,4.66,1.76,3.44,5.39-10.38,30.78-20.65,61.61-30.93,92.42-.7,2.1-1.4,4.14-3.99,4.56Z"/><path class="j" d="M283.21,153.29c-12.59-6.27-25.16-12.56-37.76-18.79-10.4-5.14-20.83-10.22-31.25-15.32-3.68,2.08-5.14,5.22-5.08,9.45,.14,9.47,.02,18.94,0,28.41-3.15,1.35-6.48,1.18-9.78,1.15-1.13,0-2.95,.13-2.89-1.19,.21-4.72-2.65-9.45-.19-14.09,2.9-5.49,4.32-11.44,5.47-17.42,1.24-6.48-.49-12.55-3.92-18.14l.18-.19-.15,.21c-.08-3.58-.77-6.82-4.67-8.24h-.01c.43-2.82-1.91-4.7-2.28-7.44-1.23-9-.52-18.16-2.64-27.08-.76-3.23-1.33-5.2-5.01-3.12-2.71,1.53-3.13-.17-3.17-2.34,6.83-2,13.67-3.93,20.47-6.02,2.38-.73,3.5-.73,3.72,2.35,.41,5.61,1.2,11.2,.88,16.83-.23,4.08,.93,7.9,1.3,13.32,1.88-4.32,5.4-5.38,6.46-8.56,5.74-7.96,11.48-15.93,17.21-23.89,6.99,6.56,13.97,13.12,20.96,19.68-7.41,7.94-14.83,15.87-22.23,23.82-1.35,1.44-2.65,2.92-3.98,4.39q-4.51,5.21,1.7,7.79c1.99,.82,4.06,1.44,6.03,2.29,7.74,3.33,16.58,4.85,21.28,13.2,.85,1.51,2.14,2.81,3.52,4.07,6.55,6,14.21,9.48,22.8,11.3,1.43,.3,3.84-.04,3.8,2.34-.07,3.74,1.04,7.6-.78,11.22Z"/><path class="i" d="M405.32,103.48c0,.26-.1,.49-.28,.68-4.86,3.01-4.99,8.56-7.02,13.09-3.41,.66-4.17-1.74-4.93-4.22-.64-2.1-2.1-2.95-4.21-2.21-1.56,.54-4.28,.14-3.7,2.92,.92,4.43-2.04,7.46-3.47,11.04-.41,1.03-.8,2.37-2.32,2.19-1.3-.15-1.05-1.43-1.44-2.29-2.71-6.09-5.39-12.2-8.31-18.18-1.43-2.93-3.02-4.29-5.38-.21-3.61,6.23-5.08,13-4.99,19.9,.05,4.16-3.92,6.98-2.73,11.19,.03,.09-1.04,.68-1.62,.73-4.64,.39-8.62-3.16-13.46-2.19-1.34,.27-1.32-1.56-1.4-2.72-.19-2.93,2.4-6.47,2.11-7.62-1.41-5.55,1.95-8.17,5.14-10.86,5.55-4.66,5.61-11.81-.2-16.48l-.1-.1c-.22-1.78-1.09-3.79-.55-5.31,3.24-9.1,2.81-18.85,5.29-28.12,.96-3.59,.57-6.96,5.22-7.55,2.99,0,6.02,.28,8.97-.07,4.1-.49,5.58,1.44,6.16,5.13,1.22,7.83,2.73,15.62,3.97,23.46,.54,3.45,1.51,3.94,4.37,1.66,4.76-3.8,2.98-9.43,4.47-14.12v-1.87l.11-.41c1.36-3.12,2.47-6.28,1.72-9.77,.07-.39,.14-.79,.22-1.18,1.06-.57,1.08-1.61,1.06-2.59-.13-6.89,4.97-4.92,8.79-5.3,4.48-.44,5.02,2.2,5.37,5.78,.58,5.89,1.8,11.71,2.51,17.58,1,8.27,3.65,16.37,2.58,24.85l-.02,.04c-1.64,.44-2.33,1.45-1.92,3.14Z"/><path class="g" d="M330.98,111.94c-12.66,12.67-38.48,17.59-53.83,10.37-10.9-5.13-16.89-13.78-17.91-25.61-1.1-12.72,3.36-23.1,14.24-30.33,1.89,.02,3.52-.79,5.23-1.46,14.74-5.8,34.88-3.52,44.66,10.41-8.61,9.29-17.22,18.58-26.39,28.49,8.46,1.5,14.16-2.5,20.02-5.96,.54,1.85,2.05,2.98,3.43,4.02,3.91,2.97,7.5,6.23,10.55,10.08Zm-51.94-32.88l-.05,.07c-5.68,4.21-7.15,11.94-3.88,20.37,2.2,5.66,3.25,6.12,9.06,3.94,7.12-6.78,13.24-14.46,19.81-21.74,3.93-4.36,3.72-5.7-1.52-8.28-8.76-4.32-16.08-1.4-22.73,4.66l-.68,.98Z"/><path class="j" d="M184.07,141.07c-.25,.41-.49,.81-.74,1.22-.44,.25-.88,.5-1.33,.76-1.26,.24-1.93,.92-1.69,2.27h-.02c-.65,.13-.93,.5-.72,1.16l-.04,.09c-1.9-.11-2.34,1.08-2.37,2.64l.02-.02c-.35,.33-.7,.65-1.04,.98h0c-3.9-.05-6.39,3.2-9.8,4.21-6.11,1.8-11.77,4.51-18.87,2.46-4.82-1.4-8.56-4.83-13.48-5.54l.03,.02c.14-1.39-.46-2.13-1.89-2.13h0c.29-1.57-.22-3.15-1.03-4.28-4.74-6.59-4.31-13.76-3.05-21.22,.5-2.93,2.88-5.39,2.03-8.6h-.02c2.94-.47,2.48-3.03,3.06-4.97h-.01c2.1-.06,3.14-1.02,2.74-3.22l.05-.05c3.37-.08,4.85-2.31,5.83-5.12h.08c.72,.17,1.06-.11,1.01-.84l.02-.18c2.89,1.38,4.77-1.61,7.32-1.7,1.66-.08,3.52,.88,4.86-.92,.55-.73,1.33-.89,2.18-.85-.01,.97-.02,1.95-.03,2.92l-.03,.02c-1.63,.58-4.61-1.6-4.66,2.25l-.12,.02c-.61-.09-.97,.19-1.12,.77l-.04,.03c-.93-.06-1.74,.05-1.63,1.3l-.08,.05c-.74-.12-1.03,.21-.92,.93l-.03,.08c-2.03-.45-2.41,.51-1.9,2.22l-.45,1.3c-5.62,3.89-6.95,12.44-3.01,19,5.4,9.02,20.32,10.45,26.06,2.11,9.11-5.06,12.06-16.78,6.51-21.06-3.01,8.41-7.53,10.94-14.36,8.05-4.8-2.03-6.2-6.5-3.72-11.89,.84-.08,1.68-.17,2.52-.25l.96-.86,1.97-1.09c2.69-.21,2.02-2.83,3.04-4.24,1.04,.09,2.07,.19,3.11,.28,.58,2.11,1.43,3.66,3.88,1.87,3.23,.42,4.32,3.87,7.05,5,4.83,5.09,5.91,11.66,7.14,18.17l-.03,1.99-1.25,7.94c-1.33,2.12-2.14,4.39-1.94,6.94Z"/><path class="g" d="M464.14,135.17c-8.17,10.68-19.14,15.26-32.29,13.73-13.74-1.6-23.58-15.3-21.43-29.32,1.75-11.43,7.35-20.45,17.69-26.18,4.13,.52,7.76-1.67,11.77-2.18,16.97-2.14,32.16,14.25,28.78,31.03-.83,4.12-3.2,7.6-3.69,11.73l-.1,.15c-.24,.34-.48,.69-.72,1.03Zm-36.64-32.12c-4.91,3.05-4.71,7.96-4.41,12.73,.37,5.91,5.1,10.58,12.24,12.57,5.35,1.49,11.82-.61,14.83-4.83,9.48-5.76,12.48-13.65,7.83-20.6-3.07,7-5.5,8.85-11.04,8.41-4.48-.36-7.58-2.68-8.65-6.99-1.36-5.47,3.01-7.72,6.77-10.3-7.12-1.68-12.29,1.03-17.57,9Z"/><path class="e" d="M347.11,98.22c5.81,4.67,5.75,11.83,.2,16.48-3.2,2.68-6.55,5.3-5.14,10.86,.29,1.15-2.3,4.69-2.11,7.62,.08,1.16,.06,3,1.4,2.72,4.84-.98,8.82,2.57,13.46,2.19,.58-.05,1.65-.63,1.62-.73-1.19-4.21,2.78-7.03,2.73-11.19-.08-6.91,1.39-13.67,4.99-19.9,2.36-4.08,3.95-2.72,5.38,.21,2.93,5.99,5.61,12.09,8.31,18.18,.38,.86,.13,2.14,1.44,2.29,1.52,.18,1.91-1.16,2.32-2.19,1.43-3.58,4.39-6.61,3.47-11.04-.58-2.78,2.15-2.38,3.7-2.92,2.11-.73,3.57,.12,4.21,2.21,.76,2.48,1.51,4.88,4.93,4.22-.63,5.57-1.66,11.11-.53,16.75,2.42,12.03,9.39,20.43,20.34,25.68-5.83,.1-11.46-1.31-17.16-2.19-2.76-.43-3.45-1.87-3.78-4.29-1.49-10.88-3.1-21.74-4.72-32.6-.29-1.96-.85-3.88-2.34-6.18-2.76,6.69-5.52,13.38-8.58,20.79-4.61-6.56-6.47-13.55-9.86-19.75-.64-1.16-1.04-2.46-1.73-3.59-.79-1.28-.62-3.92-2.8-3.36-1.63,.42-1.48,2.75-1.75,4.35-1.37,8.37-2.81,16.72-4,25.11-.33,2.33-1.16,3.37-3.46,2.97-5.89-1.03-11.78-2.11-17.67-3.17-2.33-.42-2.8-1.67-2.24-3.96,.74-3.06,1.3-6.22,1.42-9.36,.24-6.32,4.14-10.33,8.48-14.02,3.04-2.59,3.33-4.69-.22-6.91-3.28-2.05-3.75-4.78-3-8.57,2.5-12.55,4.56-25.19,6.78-37.79,1.92,0,3.84,0,5.76,0-4.65,.59-4.25,3.95-5.22,7.55-2.49,9.27-2.06,19.02-5.29,28.12-.54,1.51,.33,3.52,.55,5.31-.13,.16-.25,.32-.38,.48l.47-.38Z"/><path class="p" d="M121.35,104.32c-.74-3.15,1.18-5.77,1.74-8.66,2.63-13.56-2.72-23.67-13.31-31.79-11.69-8.96-25.28-9.57-38.9-8.48-15.49,1.23-30.17,6.02-43.94,13.37-1.59,.85-3.44,1.39-4.1,3.37-1.69-1.59-.67-2.68,.76-3.5,24.29-13.98,49.84-22.24,78.08-15.3,15.94,3.92,26.76,17.5,26.26,31.66-.25,7.02-1.73,13.8-6.6,19.33Z"/><path class="d" d="M283.21,153.29c1.82-3.62,.71-7.48,.78-11.22,.05-2.38-2.37-2.04-3.8-2.34-8.59-1.82-16.25-5.3-22.8-11.3-1.38-1.26-2.67-2.56-3.52-4.07-4.7-8.35-13.53-9.87-21.28-13.2-1.97-.85-4.04-1.47-6.03-2.29q-6.22-2.57-1.7-7.79c6.64,4.94,14.76,6.56,22.14,9.84,3.89,1.73,7.16,3.6,9.69,7.22,6.91,9.9,16.67,15.46,28.59,17.07,2.93,.4,3.49,2.13,3.54,4.44,.08,3.82,.19,7.65,0,11.46-.24,4.84-1.1,5.12-5.62,2.18Z"/><path class="d" d="M510.78,117.88c0,.17,.06,.38-.01,.49-1.25,1.91-2.66,4.53-4.95,4.02-1.53-.33-1.45-3.34-1.84-5.27-2.94-14.57-6.01-29.11-8.91-43.68-.36-1.79-1.3-2.74-2.8-3.05-8.73-1.81-17.48-3.52-26.22-5.27-.68-3.92,.32-5.58,4.8-4.53,7.73,1.83,15.58,3.19,23.4,4.67,2.83,.54,4.65,1.57,5.29,4.85,2.95,14.97,6.2,29.89,9.33,44.82,.26,1.24-.02,2.81,1.92,2.94Z"/><path class="f" d="M506.03,183.3c2.59-.42,3.29-2.46,3.99-4.56,10.29-30.81,20.55-61.64,30.93-92.42,1.22-3.63,.58-4.85-3.44-5.39-5.54-.74-10.95-2.49-16.41-3.81-.59-3.81,.67-5.28,4.7-4.23,5.13,1.34,10.32,2.49,15.54,3.37,4.14,.7,5.08,2.44,3.71,6.42-5.66,16.48-11.09,33.03-16.61,49.55-5.25,15.73-10.43,31.48-15.78,47.18-1,2.95-1.4,7.82-6.65,3.89Z"/><path class="p" d="M464.96,133.98c.49-4.13,2.86-7.61,3.69-11.73,3.38-16.78-11.82-33.17-28.78-31.03-4,.51-7.63,2.69-11.77,2.18,8.81-6.93,18.58-8.04,28.89-4.33,9.48,3.41,14.9,10.5,15.91,20.4,.94,9.17-.91,17.77-7.95,24.52Z"/><path class="p" d="M407.25,100.3c1.08-8.48-1.58-16.58-2.58-24.85-.71-5.88-1.94-11.7-2.51-17.58-.35-3.58-.89-6.22-5.37-5.78-3.82,.38-8.92-1.59-8.79,5.3,.02,.98,0,2.02-1.06,2.59,.07-12.42,5-16.11,16.75-12.62,1.84,.55,2.17,1.88,2.39,3.37,2.04,13.61,4.12,27.22,6.02,40.85,.54,3.91-2.25,6.35-4.85,8.72Z"/><path class="p" d="M417.83,159.67c-10.96-5.25-17.92-13.64-20.34-25.68-1.14-5.64-.1-11.18,.53-16.75,2.03-4.53,2.16-10.08,7.02-13.09-1.46,6.39-4.43,12.38-4.05,19.26,.72,12.82,5.79,22.95,16.91,29.76,.85,.52,1.63,1.13,2.48,1.65,1.48,.91,2.06,2.33,1.56,3.84-.74,2.26-2.5,1.61-4.11,1Z"/><path class="d" d="M356.97,57.15c-1.92,0-3.84,0-5.76,0-.56-3.02,.67-4.22,3.75-4.15,5.8,.13,11.61,.09,17.42,0,2.47-.04,3.45,.98,3.86,3.42,1.5,8.94,3.23,17.84,4.97,27.28,2.55-3.55,1.17-7.49,3.11-10.5,.19,0,.38,0,.58,.02-1.49,4.69,.29,10.32-4.47,14.12-2.86,2.28-3.83,1.79-4.37-1.66-1.23-7.83-2.75-15.62-3.97-23.46-.57-3.7-2.05-5.62-6.16-5.13-2.95,.35-5.98,.07-8.97,.07Z"/><path class="g" d="M313.97,31.15c-7.39,4.75-15.64,7.81-23.38,11.88-.96,.51-2.33,1.79-3.43-.02-.81-1.33-.49-2.5,.5-3.61,5.89-6.67,10.99-14.02,17.44-20.21,2.25,4.51,5.5,8.28,8.87,11.96Z"/><path class="m" d="M388.11,165.11c-2.39,.12-5.07-.66-7.07,2.15,0-1.59,.07-3.19-.02-4.78-.13-2.51-2.19-3.48-3.63-2.17-4.25,3.83-6.26,.75-8.27-2.23-1.18-1.74-2.28-3.67-2.07-5.97,.39-3.92,.9-7.82,2.71-12.1,3.32,5.59,6.37,10.71,9.47,15.93,3.19-2.18,2.88-6.41,6.54-8.36,1.71,5.86,1.67,11.76,2.35,17.53Z"/><path class="p" d="M323.38,75.31c-9.78-13.93-29.92-16.21-44.66-10.41-1.71,.67-3.35,1.48-5.23,1.46,13.42-11.66,39.44-12.73,52.45,2.18,3.43,3.93-.89,4.82-2.56,6.77Z"/><path class="d" d="M104.08,179.91c-4.59-14.15-7.69-28.7-11.57-43.04-1.05-3.88,1.53-5.34,4.13-6.91,3.66,14.82,7.27,29.66,11.01,44.46,.85,3.35,.76,5.69-3.57,5.49Z"/><path class="p" d="M212.89,77.07c-1.06,3.18-4.58,4.24-6.46,8.56-.37-5.42-1.53-9.24-1.3-13.32,.32-5.64-.47-11.23-.88-16.83-.22-3.08-1.35-3.08-3.72-2.35-6.8,2.09-13.64,4.03-20.46,6.02-.95-.49-1.02-1.36-.98-2.27,8.83-3.83,18.21-5.93,27.44-8.45,2.75-.75,2.31,1.67,2.4,3.18,.43,7.31,.79,14.62,1.17,21.93,.1,1.84-.08,3.89,2.79,3.54Z"/><path class="p" d="M251.07,72.86c-6.99-6.56-13.97-13.12-20.96-19.68q3.37-5.88,8.18-1.14c4.36,4.27,8.66,8.62,13.18,12.71,4.67,4.23,4.77,4.33-.4,8.1Z"/><path class="f" d="M150.13,99c-2.55,.09-4.43,3.08-7.32,1.7,9.57-8.92,27.39-10.2,37.51-2.63,1.27,.95,2.77,1.89,3.01,3.75-2.73,.15-1.25,3.46-3.18,4.21-2.73-1.12-3.82-4.57-7.05-4.99-1.04-1.15-2.36-1.72-3.88-1.87-1.04-.09-2.07-.19-3.11-.28-2.84-1.28-5.79-1.95-8.93-1.65-.85-.04-1.63,.12-2.18,.85-1.63,.24-3.45-.52-4.86,.92Z"/><path class="d" d="M209.13,157.03c.01-9.47,.13-18.94,0-28.41-.06-4.23,1.4-7.37,5.08-9.45-.12,11.36-.23,22.72-.38,34.08-.04,3.11-.08,6.32-4.76,5.36,.03-.53,.05-1.05,.07-1.58Z"/><path class="f" d="M476.06,163.34c2.92-.19,3.63-2.07,4.09-4.66,2.18-12.38,4.56-24.73,6.84-37.09,.45-2.43,.96-4.68,4.17-4.47-.22,5.04-2.95,9.74-2.06,14.94l-.1,.28c-1.01,1.44-1.71,2.95-1.2,4.78-.14,.71-.27,1.42-.41,2.13-.21,.26-.25,.53-.1,.83-1.3,6.49-2.96,12.94-3.8,19.5-.71,5.57-3.41,5.56-7.43,3.76Z"/><path class="n" d="M113.09,151.17c-2.82-4.46-2.65-9.74-3.74-14.64-.74-3.33,2.85-4.91,5.04-6.74,1.06-.89,1.72,.38,1.73,1.47,.02,6.13,2.08,11.89,3.1,17.84-2.51-.68-4.05,1.49-6.12,2.07Z"/><path class="p" d="M330.98,111.94c-3.05-3.85-6.64-7.11-10.55-10.08-1.38-1.05-2.89-2.17-3.43-4.02,1.69-4.12,3.96-4.34,7.03-1.24,2.44,2.47,5.05,4.8,7.7,7.05,4.92,4.19,4.93,4.45-.75,8.29Z"/><path class="l" d="M45.18,137.14c-.01-.33-.02-.66-.01-.99,2.83-.11,4.91,1.32,6.75,3.27,1.46,1.55,2.89,3.13,5.34,2.72,3.1,2.92,3.9,6.7,4.1,10.73-3.26,2.09-5.89,.85-7.74-1.94-2.98-4.48-5.64-9.18-8.43-13.78Z"/><path class="m" d="M113.09,151.17c2.08-.58,3.62-2.75,6.12-2.07,4.01,4.65,8.03,9.31,12.04,13.96-1.97,.06-3.9-1.74-5.95,.25-1.54,1.5-2.77-.05-3.54-1.21-1.47-2.2-3.62-3.14-5.98-3.82-2.45-1.78-2.89-4.32-2.69-7.11Z"/><path class="r" d="M209.13,157.03c-.02,.53-.05,1.05-.07,1.58-.31,.12-.63,.35-.93,.33-4.48-.26-11.13,3.93-12.85-.02-2.25-5.16-3.32-12.02,.05-18.23,5.78-10.66,5.62-21.94,2.5-33.35,3.43,5.59,5.16,11.65,3.92,18.14-1.15,5.98-2.57,11.93-5.47,17.42-2.46,4.65,.4,9.38,.19,14.09-.06,1.32,1.76,1.18,2.89,1.19,3.31,.03,6.64,.2,9.78-1.15Z"/><path class="f" d="M313.97,31.15c-3.37-3.68-6.62-7.45-8.87-11.96,2.86-5.06,3.22-5.13,6.57-.79,1.61,2.09,3.01,4.35,4.59,6.47,3.3,4.42,3.28,4.5-2.28,6.28Z"/><path class="r" d="M179.09,56.87c-.04,.92,.03,1.79,.98,2.27,.04,2.16,.46,3.87,3.17,2.34,3.68-2.08,4.24-.11,5.01,3.12,2.11,8.93,1.41,18.08,2.64,27.08,.37,2.74,2.71,4.62,2.28,7.42-2.92-1.81-3.95-4.4-4.13-7.85-.41-8.24-1.36-16.45-1.85-24.68-.17-2.85-1.11-3.71-3.92-3.34-5.69,.75-6.38-.4-4.18-6.37Z"/><path class="f" d="M184.07,141.07c-.21-2.55,.6-4.82,1.94-6.94,2.49-2.32,2.89-4.97,1.25-7.94,0-.66,.02-1.33,.03-1.99,3.86-.91,3.64-4.21,2.26-6.16-3.21-4.54-3.44-9.7-4.44-14.75,7.35,6.98,7.88,21.53,3.15,31.25-1.12,2.3-1.51,5.18-4.18,6.54Z"/><path class="r" d="M133.97,151.29c4.92,.71,8.66,4.14,13.48,5.54,7.1,2.05,12.76-.65,18.87-2.46,3.41-1.01,5.9-4.26,9.8-4.2-11.57,10.66-28.27,12.02-40.27,3.3-.81-.59-1.68-1.08-1.89-2.18Z"/><path class="d" d="M185.1,103.28c1,5.05,1.23,10.21,4.44,14.75,1.38,1.95,1.6,5.25-2.26,6.16-1.22-6.51-2.3-13.07-7.13-18.17,1.93-.75,.45-4.07,3.18-4.21l-.07,.17c.19,.69,.67,.99,1.36,1.03,.24-.06,.41,.03,.49,.27Z"/><path class="r" d="M130.06,115.08c.85,3.21-1.54,5.66-2.03,8.6-1.26,7.46-1.68,14.63,3.05,21.22,.81,1.13,1.32,2.7,1.03,4.28-8.34-8.91-9.21-23.45-2.05-34.1Z"/><path class="m" d="M160.11,62.14c-.31-3.29-.03-6.11,3.78-7.54,1.36-.51,2.24-2.31,3.34-3.52,1.74,3.23,.58,6.72,.87,10.07-2.66,.33-5.32,.66-7.99,.99Z"/><path class="s" d="M249.24,101.24c-3.2-.49-5.8-1.73-8.79-3.3,2.76-2.62,5.22-4.95,8.3-7.88,.18,4.19,.33,7.54,.49,11.17Z"/><path class="n" d="M220.41,39.19c1.88,.32,3.76,.63,5.63,.95-1.82,3.55-3.64,7.11-5.97,11.66-1.5-5.01-1.28-8.82,.34-12.61Z"/><path class="o" d="M334.54,79.17c1.86,3.07,1.8,5.35,.82,7.46-.63,1.35,.79,4.04-1.59,3.92-1.41-.07-2.93-2-4.01-3.39-1.32-1.71,.64-2.55,1.47-3.65,1.1-1.45,2.21-2.89,3.31-4.34Z"/><path class="h" d="M489.09,132.06c-.89-5.2,1.85-9.9,2.06-14.94,1.45,7.23,2.12,14.5,1.39,21.87-1.41-3.48,.58-7.59-2.02-10.89-1.13,1.09,.17,3.07-1.43,3.96Z"/><path class="h" d="M492.6,143.28c.65,5.93,.51,11.87,.25,17.81-1.52-5.92-1.05-11.86-.25-17.81Z"/><path class="r" d="M193.17,99.12c3.9,1.42,4.59,4.66,4.67,8.24-1.99-2.5-3.37-5.35-4.67-8.24Z"/><path class="r" d="M141.7,101.73c-.98,2.8-2.46,5.04-5.83,5.12,1.2-2.55,3.09-4.32,5.83-5.12Z"/><path class="p" d="M386.73,61.17c.75,3.49-.35,6.65-1.72,9.77-.01-3.36-.49-6.8,1.72-9.77Z"/><path class="r" d="M133.09,110.11c-.58,1.93-.12,4.5-3.06,4.98,.33-2.08,1.09-3.9,3.06-4.98Z"/><path class="h" d="M487.79,137.12c-.51-1.82,.2-3.34,1.2-4.78-.28,1.62,.89,3.61-1.2,4.78Z"/><path class="r" d="M135.81,106.9c.41,2.19-.64,3.15-2.74,3.22,.25-1.63,1.12-2.75,2.74-3.22Z"/><path class="p" d="M405.32,103.48c-.42-1.69,.28-2.7,1.92-3.14,.01,1.44-.34,2.67-1.92,3.14Z"/><path class="r" d="M180.31,145.31c-.24-1.35,.43-2.03,1.7-2.27,.04,.41,.07,.82,.1,1.23-.34,.8-1.01,1.02-1.8,1.05Z"/><path class="r" d="M177.16,149.2c.03-1.56,.47-2.76,2.37-2.64-.27,1.35-1.05,2.24-2.37,2.64Z"/><path class="p" d="M119.44,107.45c.1-1.37,.41-2.62,1.91-3.13,0,1.43-.32,2.67-1.91,3.13Z"/><path class="r" d="M132.1,149.18c1.43,0,2.03,.73,1.89,2.13-1.07-.32-1.65-1.07-1.89-2.13Z"/><path class="f" d="M182.11,144.27c-.03-.41-.07-.82-.1-1.23,.44-.25,.88-.51,1.33-.76,.05,.94-.39,1.58-1.22,1.98Z"/><path class="d" d="M466,65.23c-.02,.57-.04,1.14-.06,1.71-1.11-.61-.85-1.17,.06-1.71Z"/><path class="p" d="M384.9,73.21c-.19,0-.39-.01-.58-.02-.18-.74-.19-1.42,.58-1.85,0,.63,0,1.25,0,1.87Z"/><path class="p" d="M117.14,111.07c.22-.3,.44-.6,.66-.9,.21,.61-.12,.83-.66,.9Z"/><path class="p" d="M464.14,135.17c.24-.34,.48-.69,.72-1.03,.11,.59-.13,.94-.72,1.03Z"/><path class="r" d="M176.13,150.16c.35-.33,.7-.65,1.04-.98-.35,.33-.7,.65-1.04,.98Z"/><path class="p" d="M118.31,109.26c.24-.35,.48-.7,.72-1.05,.12,.6-.13,.94-.72,1.05Z"/><path class="h" d="M487.28,140.08c-.15-.3-.11-.58,.1-.83,.06,.2,.15,.4,.16,.61,0,.07-.17,.15-.27,.22Z"/><path class="r" d="M142.79,100.89c.04,.74-.3,1.01-1.01,.84,.34-.28,.67-.56,1.01-.84Z"/><path class="f" d="M184.61,103.02c-.69-.03-1.17-.34-1.36-1.03,.45,.34,.91,.69,1.36,1.03Z"/><path class="r" d="M179.56,146.47c-.2-.66,.07-1.02,.72-1.15-.24,.38-.48,.77-.72,1.15Z"/><path class="h" d="M84.03,81.37c3.4-.66,6.61-2.26,10.21-1.97,6.13,.49,11.69,2.5,14.36,8.3,2.85,6.19,2.32,12.63-1.37,18.58-3.24,5.22-8.21,8.58-13.06,12.06-2.14-.61-2.44-2.52-2.96-4.26-3.1-10.34-6.18-20.68-9.28-31.02l.09-.14c1.05-.04,1.63-.68,2.02-1.57Zm7.82,8.9c1.79,5.7,3.34,10.65,5,15.96,5.03-6.55,2.81-13.93-5-15.96Z"/><path class="p" d="M81.93,83.07c3.09,10.34,6.18,20.68,9.28,31.02,.52,1.74,.82,3.64,2.96,4.26-4.59,3.84-5.11,3.68-6.58-1.49-2.53-8.85-5.25-17.64-7.74-26.5-.76-2.71-2.29-5.92,2.08-7.28Z"/><path class="p" d="M84.03,81.37c-.39,.89-.97,1.53-2.02,1.57,.15-1.2,.79-1.76,2.02-1.57Z"/><path class="h" d="M279.73,78.08c6.65-6.05,13.97-8.98,22.73-4.66,5.23,2.58,5.45,3.93,1.52,8.28-6.57,7.28-12.69,14.97-19.81,21.74-2.17-.69-3.46-2.29-4.64-4.15-4.26-6.64-2.97-13.38-.53-20.17l.05-.07c.58-.08,.86-.37,.68-.98Zm16.42,3.01c-4.81,.03-8.43-1.3-11.07,1.75-2.81,3.25-2.7,7.11-1.03,11.82,3.96-4.45,7.5-8.41,12.1-13.57Z"/><path class="f" d="M278.99,79.14c-2.44,6.79-3.73,13.52,.53,20.17,1.19,1.85,2.47,3.46,4.64,4.15-5.81,2.17-6.86,1.72-9.06-3.94-3.27-8.43-1.8-16.16,3.88-20.37Z"/><path class="f" d="M279.73,78.08c.18,.61-.1,.9-.68,.98,.23-.33,.46-.65,.68-.98Z"/><path class="h" d="M146.15,109.12c.15-.43,.3-.86,.45-1.3,.98-.44,1.71-1.1,1.9-2.22l.02-.08c.31-.31,.62-.62,.93-.92l.08-.05c.86-.03,1.41-.46,1.63-1.3l.04-.03c.37-.26,.75-.51,1.12-.77l.12-.02c1.57-.48,3.13-.96,4.7-1.44,4.36,.99-.1,2.93,.47,4.34-2.47,5.39-1.08,9.86,3.72,11.89,6.83,2.89,11.35,.36,14.36-8.05,5.55,4.28,2.6,16-6.51,21.06-4.04,.75-8.08,1.64-12.18,.38-9.54-2.93-12.95-9.67-10.86-21.49Z"/><path class="d" d="M146.15,109.12c-2.08,11.82,1.32,18.57,10.86,21.49,4.1,1.26,8.14,.37,12.18-.38-5.74,8.33-20.65,6.91-26.06-2.11-3.93-6.57-2.61-15.11,3.01-19Z"/><path class="e" d="M157.17,97.23c3.13-.3,6.09,.37,8.93,1.65-1.01,1.41-.35,4.03-3.04,4.24,.05-1.26,1.35-3.12-1.47-3-1.48,.06-2.97,.02-4.45,.03,.01-.97,.02-1.95,.03-2.92Z"/><path class="f" d="M157.14,100.16c1.48,0,2.97,.03,4.45-.03,2.82-.12,1.52,1.74,1.47,3-.66,.36-1.31,.73-1.97,1.09-.32,.29-.64,.58-.96,.86-.84,.08-1.68,.17-2.52,.25-.57-1.4,3.89-3.34-.47-4.34,0-.27-.02-.54-.04-.81l.03-.02Z"/><path class="d" d="M187.25,126.19c1.64,2.97,1.24,5.62-1.25,7.94,.41-2.65,.83-5.29,1.25-7.94Z"/><path class="e" d="M169.21,99.16c1.52,.15,2.84,.73,3.88,1.87-2.46,1.78-3.3,.23-3.88-1.87Z"/><path class="e" d="M157.11,100.18c.02,.27,.03,.54,.04,.81-1.57,.48-3.13,.96-4.7,1.44,.06-3.85,3.03-1.67,4.66-2.25Z"/><path class="e" d="M150.13,99c1.41-1.44,3.23-.68,4.86-.92-1.34,1.8-3.2,.84-4.86,.92Z"/><path class="e" d="M148.5,105.6c-.19,1.12-.92,1.78-1.9,2.22-.5-1.71-.13-2.67,1.9-2.22Z"/><path class="e" d="M151.16,103.26c-.22,.84-.77,1.26-1.63,1.3-.11-1.25,.7-1.36,1.63-1.3Z"/><path class="e" d="M160.14,105.08c.32-.29,.64-.58,.96-.86-.32,.29-.64,.58-.96,.86Z"/><path class="e" d="M149.45,104.6c-.31,.31-.62,.61-.93,.92-.1-.72,.19-1.04,.93-.92Z"/><path class="e" d="M152.33,102.46c-.37,.26-.75,.51-1.12,.77,.16-.58,.51-.86,1.12-.77Z"/><path class="h" d="M427.5,103.05c5.28-7.97,10.45-10.69,17.57-9-3.76,2.57-8.13,4.83-6.77,10.3,1.07,4.31,4.17,6.63,8.65,6.99,5.53,.44,7.96-1.41,11.04-8.41,4.65,6.94,1.64,14.84-7.83,20.59-17.29,3.36-25.77-8.53-22.65-20.47Z"/><path class="d" d="M427.5,103.05c-3.12,11.94,5.36,23.83,22.65,20.47-3.01,4.22-9.48,6.33-14.83,4.83-7.13-1.99-11.86-6.66-12.24-12.57-.3-4.77-.5-9.68,4.41-12.73Z"/><path class="i" d="M347.11,98.22l-.47,.38c.13-.16,.25-.32,.38-.48l.1,.1Z"/><path class="s" d="M91.85,90.27c7.81,2.03,10.03,9.41,5,15.96-1.67-5.31-3.21-10.26-5-15.96Z"/><path class="s" d="M296.15,81.09c-4.6,5.16-8.14,9.13-12.1,13.57-1.67-4.71-1.78-8.57,1.03-11.82,2.64-3.06,6.26-1.72,11.07-1.75Z"/></g></g></g></svg>