<?xml version="1.0" encoding="UTF-8"?><svg xmlns="http://www.w3.org/2000/svg" viewBox="0 0 213.95 307.43"><defs><style>.d{fill:#023e7a;}.e{fill:#788e5a;}.f{fill:#728c5c;}.g{fill:#d4a200;}.h{fill:#91a2bb;}.i{fill:#395c99;}.j{fill:#c6c174;}.k{fill:#2a698f;}.l{fill:#c4abc0;}.m{fill:#003a74;}.n{fill:#3b6e8d;}.o{fill:#005091;}.p{fill:#43737e;}.q{fill:#677ba5;}.r{fill:#2b60a0;}.s{fill:#cda207;}.t{fill:#5d7d79;}.u{fill:#0166b0;}.v{fill:#d2a103;}.w{fill:#005a9f;}.x{fill:#016fb8;}.y{fill:#fecb00;}.a`{fill:#808133;}.aa{fill:#006fb9;}.ab{fill:#ecd1da;}.ac{fill:#81aec7;}.ad{fill:#0076bd;}.ae{fill:#326893;}.af{fill:#014989;}.ag{fill:#d5a001;}.ah{fill:#195da9;}.ai{fill:#006eb8;}.aj{fill:#d6a200;}.ak{fill:#d0c76b;}.al{fill:#636c33;}.am{fill:#3e6984;}.an{fill:#0266b1;}.ao{fill:#4d727c;}.ap{fill:#012f66;}.aq{fill:#014785;}.ar{fill:#0062a8;}.as{fill:#ad9c22;}.at{fill:#0066b1;}.au{fill:#005294;}.av{fill:#0167b1;}.aw{fill:#707026;}.ax{fill:#006cb6;}.ay{fill:#3b767b;}</style></defs><g id="a"/><g id="b"><g id="c"><g><path class="at" d="M138.44,204.04c-3.03-.94-6.26-.65-9.31-1.46-2.89-.76-5.84-.72-8.79-.64-3.42-.41-7.03,1.17-10.27-1-1.6-.62-3.26-.54-4.93-.5-1.03,.01-2.05,0-3.08,.01-2.79-.5-5.91,1.24-8.41-1.24-.81-1.2-.89-2.54-.72-3.93,2.28-18.07,4.11-36.19,6.23-54.28-.49-4.89,2.15-7.76,6.09-10.06,2.75-1.6,5.62-3.13,7.78-5.6,.56-1.01,1.04-2.03,.42-3.2-1.16-1.13-2.6,.7-4.17-.63,4.12-2.98,3.09-6.5,.99-10.08-.99-.51-1.94-.32-2.71,.38-.93,.84-1.93,1.57-2.96,2.28-.01,.01-.02,.02-.03,.04-.63,.59-1.35,1.04-2.12,1.4-1.49,.98-2.97,1.99-4.3,3.2-.17,.2-.35,.4-.53,.59-.33,.52-.76,.98-1.29,1.33-.89,.86-1.85,1.62-2.93,2.17-7.47,3.77-12.35,10.45-18.29,15.95-.68,.63-.83,1.5-1.12,2.31-.16,6.2-.71,12.25-1.69,18.19-.28,8.64-1.01,17.14-2.41,25.8-1.04,6.47-1.32,13.05-2.3,19.51,.42,.19,1.12-1.04,1.58,.03,1.53,3.54,6.28,3.78,7.87,7.43,.3,.7,1.51,.76,2.37,.94,2.44,.5,4.91,.76,7.41,.82,9.33,.22,18.57,1.62,27.89,1.95,4.07,.14,8.09,1.64,12.21,.53,1.44-1.06,.34-1.69-.44-2.23-1.24-.87-2.76-1.08-4.16-1.58-1.16-.41-2.15-1.2-1.58-2.47,.61-1.38,1.68-.44,2.51-.02,1.14,.57,2.54,1.34,3.49,.44,3.21-3.05,7.13-3.66,11.26-3.84,.51-.02,.85-.46,1.04-.95,.08-.62-.07-1.16-.61-1.54Z"/><path class="ai" d="M192.54,113.04c-1.33-.81-2.34-.11-3.35,.7-14.31,11.34-28.66,22.65-42.83,34.18-1.29,1.05-2.31,2.25-2.62,3.93-.48,11.39-1.36,22.78-.97,34.21,.2,5.73-.4,11.4-1.01,17.09-.12,1.93-2.12,1.79-3.06,2.82-4.23,.03-8.65-.83-11.72,3.51-.92,1.3-2.51,.45-3.58-.52-.93-.84-1.7-1.74-3.18-.85-1.4,.84-.48,1.96-.65,2.95-.32,1.84,1.08,2.02,2.21,2.31,2.01,.53,4.13,.73,5.7,2.32,1,1.11,2.4,1.22,3.72,1.38,4.87,.6,9.77,1.07,14.67,1.2,2.67,.07,5.34,1.14,8.03,.16,1.88-1.71,1.52-4.04,1.57-6.18,.18-7.51-.2-15.03,.2-22.54,.04-5.79-.01-11.57,.17-17.35,.12-3.79-.61-7.64,.72-11.35,1.01-1.86,2.4-3.35,3.9-4.85,2.01-2.01,4.23-3.8,6.39-5.64,1-1.04,2.07-2.02,3.16-2.96,.79-1.07,1.68-2.06,2.66-2.95,1.12-2.04,2.87-4.06-.48-6.2,2.37-1.09,4.25-2.67,6.86-1.67,.89,.34,1.77,.03,2.16-.93,.44-1.09-.52-1.51-1.14-2.07-1.89-1.71-4.24-1.87-6.67-1.84,4.03-1.72,9.7-1.14,9.62-8.1,.58,2.03,1.02,4.24,3.34,3.34,2.92-1.13,1.6-3.74,1.29-5.88,2.67,.05,4.64-3.25,4.91-8.2Z"/><path class="ah" d="M144.41,56.74c-13.26-.11-26.52-.1-39.78-.03-.99,0-1.98,.11-2.93,.47-3.5,1.83-3.35,5.32-3.6,8.44-.37,4.69-.19,9.42-.1,14.13,.13,6.6,1.84,6.93-6.93,6.99-11.55-.02-23.1-.06-34.65,.05-3.02,.03-4.82-1.04-6.07-3.8-2.94-6.45-7.14-12.23-10.11-18.67-.67-1.46-1.63-2.8-3-3.75-2.54-2.09-5.05-4.17-5.72-7.66-.45-2.33-1-4.86-3-6.18-3.21-2.12-3-5.24-3.25-8.34,.67-1.8,2.29-2.51,3.82-3.33,11.11-5.98,22.14-12.1,33.27-18.04,1.9-1.02,4.24-1.65,5.05-4.08,.09-.56,.01-1.09-.32-1.56-2.09-1.11-4.44-.19-7.28-.81,4.12-1.25,6.39-5.17,10.73-4.28,.56,.11,1.59-.27,1.56-.75-.21-3.46,2.85-3.38,4.74-4.56,0-.07,0-.12,0-.18-1.83-.42-3.66-.76-5.56-.78-.02,0-.04,0-.06,0-3.86,2.6-7.48,5.3-12.23,6.73-.78,.23-1.55,.46-2.33,.69-8.06,4.86-16.76,8.62-24.57,13.92-.52,.35-1.2,.26-1.79,.42-4.73,2.41-9.25,5.2-13.88,7.79-2.02,1.64-4.02,3.48-6.31,4.59,0,.02,.01,.03,.02,.05,3.17,3.59,4.92,7.97,6.92,12.21,2.27,4.58,3.81,9.54,7.08,13.6,2.53,2.14,5.3,4.06,4.93,8.07-.11,1.18,.8,2.33,1.56,3.31,1.4,1.8,2.37,3.73,2.6,6.05,.17,1.67,.86,3.35,2.57,3.79,3.52,.92,3.95,2.96,3.23,6.18-.81,3.65,3.13,9.95,6.21,10.22,4.16,.37,8.42-.26,12.45,1.44,.77,.32,1.72,.01,2.51-.41,1.41-1.07,1.15-2.28,.29-3.54-1.84-1.17-.24-3.4-1.25-4.36,4.76,1.53,9.85,1.57,14.92,.12,2.49-.71,4.81-1.01,7.1,.41,.91,.33,1.82,.34,2.75,.06,2.25-1.4,4.48-1.4,6.67,.12,6.89,.82,10.36-1.2,11.07-7.9,.58-5.47,1-11.06,.5-16.62-.49-5.49-.51-5.49,5.08-5.71,.07,0,.2,.02,.37-.04,4.5-1.39,9.11-.59,13.67-.67,8,0,16.01,.09,24.01-.06,1.19-.2,2.5-.11,3.26-1.36-.32-2.72-2.53-2.36-4.23-2.38Z"/><path class="ad" d="M212.12,79.81c-.13-3.01-.26-6.01-.42-9-.05-.33-.1-.65-.15-.98-.46-3.24-.47-6.5-.64-9.76-.19-1.86-.41-3.72-.67-5.57-.01-.04-.02-.09-.04-.13-.29-1.06-.42-2.14-.49-3.21-.11-.65-.21-1.29-.33-1.94-1.06-5.6-2.22-11.25-2.75-16.94-.28-.33-.57-.65-.86-.96-.7-.76-1.41-1.52-2.08-2.32-.83,.53-1.66,1.03-2.78,.19-3.31-2.51-6.46-.4-9.52,.59-1.63,.53-2.47,2.67-.31,3.18,5.36,1.26,6.74,4.46,5.88,9.37-.08,.47,0-.13,.04,.36,.31,4.96,1.04,9.9,2.14,14.7,.95,4.14-.02,8.14,.27,12.19,.54,7.69,2.23,15.22,2.75,22.91,.2,2.96-.95,6.03,.33,8.85,1.28,2.82,.36,4.18-2.38,4.83-3.32,.67-5.36,3.22-7.75,5.25-.29,.53-.34,1.07-.03,1.61,.28,2.09-2.33,2.45-2.54,4.26q-.49,4.18-4.94,1.91c1.87,1.92,2.73,3.45,2.44,5.43-.16,1.07-.25,2.06-1.63,1.96-1.43-.1-1.45-1.17-1.24-2.19,.21-.97,.85-2.05-.86-2.13-1.42-.07-1.52,.77-1.86,2.05-.41,1.54,.72,4.21-2.03,4.53-2.25,.26-4.07,1.84-6.43,1.73-.85-.04-2.29,.41-2.01,1.66,.3,1.35,1.76,1.47,2.79,.98,3.23-1.55,4.62,1.14,6.67,2.3q-4.41-.14-8.83,1.68c-.58,.24-1.28,.37-1.3,1.09-.02,.79,.29,1.32,1.3,1.38,2.18,.14,2.11,1.19,.97,2.67-.52,.68-.85,1.51-1.26,2.28,.33,.11,.62,.16,.87,.18,.53-.49,1.09-.95,1.68-1.38,.31-.99,.94-1.93,1.99-2.66,6.42-4.48,11.86-9.81,18.07-14.05,.32-.45,.63-.92,.9-1.43,.85-1.72-1.68-2.46-1.47-4.1,2.18,.23,2.48,2.72,4.39,2.87,5.5-4.66,10.26-10.08,15.42-15.09,.2-.19,.38-.39,.53-.6-1.33-9.42-1.4-19.05-1.83-28.55Z"/><path class="aa" d="M179.97,281.6c.04-.37,.13-.73,.27-1.08-.17-.62-.42-1.22-.64-1.8-2.56-6.8-5.23-13.56-7.89-20.33-4.27-10.87-8.56-21.73-12.84-32.59-.73-3.79-4.06-2.35-6.29-3.12-.39-.02-.77,0-1.15,.08-3.16,1.05-6.47,1.69-9.34,3.52-1.34,.86-2.3,1.94-2.29,3.59,0,.96,.64,1.57,1.51,1.93,1.81,.73,1.96-1.41,3.27-2.04,.78,2.89,2.09,5.14,5.08,5.97,.77,.21,.63,1.25,.72,1.98,.06,.87,.1,1.76,.45,2.56,3.67,8.44,6.04,17.41,10.31,25.61,1.2,2.75,3.54,5.18,2.34,8.59-5.55,2.01-11.34,3.04-17.18,3.76-1.61,.2-3.28,.09-4.58,1.24-1.58,1.4-3.22,1.4-5.19,.86-3.17-.86-5.42,.7-6.37,4.04-.6,2.11,.88,4.22,3.68,5.2,1.69,.59,3.48,.66,5.16,.25,3.67-.9,7.32-1.07,11.03-.5,1.36,.01,2.73-.04,4.06-.33,7.98-1.76,16.09-2.82,24.09-4.49,.27-.1,.55-.18,.82-.29,.26-.87,.58-1.73,.95-2.61Z"/><path class="ap" d="M173.49,284.24c-7.82,1.45-15.68,2.71-23.52,4.04-1.87,.93-3.87,.13-5.83,.46-13.65,2.3-27.28,4.76-40.9,7.23-2.06,.37-4.1,1.05-6.24,.41-3.29-.64-4.27-3.18-4.57-5.99-.72-6.81-11.21-10.6-17.14-7.38,.87,1.89,1.73,3.79,2.59,5.69,2.32,5.16,4.63,10.34,6.89,15.53,.44,.26,.87,.62,1.27,1.09,.52,.62,1.06,1.2,1.6,1.78,.18,.03,.36,.06,.54,.1,.31,.07,.61,.16,.91,.24,2.32-.14,4.64-.27,6.96-.4,2.76-.16,5.5-.44,8.23-.77,.04-.02,.09-.03,.13-.05h.41c.53-.08,1.05-.14,1.58-.21,.66-.15,1.34-.23,2.02-.27,1.32-.18,2.63-.38,3.95-.57,.34-.12,.68-.27,1-.46,.76,.06,1.5,.05,2.24-.01,.61-.09,1.23-.18,1.84-.26,1.59-.3,3.16-.77,4.74-1.19,7.21-1.68,14.56-2.54,21.87-3.67,6.16-2.22,12.65-3.03,19.05-3.91,7.51-1.03,11.09-6.53,15.11-11.73-1.6-.16-3.13,.03-4.73,.33Z"/><path class="x" d="M203.02,96.01c.4-3.35-.07-6.61-.51-9.9-.84-6.24-2.72-12.57-2.2-18.7,.53-6.11-.64-11.69-1.59-17.49-.56-3.41-.49-6.92-1.08-10.32-.29-1.69,3.13-3.19,.17-4.76-1.73-.92-3.57-1.62-5.38-2.37-.33-.14-.76-.02-1.1-.14-1.05-.37-.93-1.01-.24-1.63,1.3-1.19,7.65-1.55,9.22-.55,1.73,1.09,3.16,1.29,3.88-.6-.19-.22-.37-.44-.56-.66-.97-.55-1.91-1.12-2.81-1.78-.38-.09-.77-.17-1.16-.26-.82-.15-1.63-.32-2.43-.53-1.3,.08-2.73,.87-3.75-.67-.24-.22-.5-.45-.75-.66-.18-.09-.36-.15-.55-.22-.44-.13-.88-.26-1.32-.37-1.95-.32-4.03,.02-5.88-.83-5.86-1.39-11.8-2.39-17.67-3.66-9.35-2.02-18.53-4.84-28.1-5.82-1.6-.07-2.25,1.37-3.36,2.07-1.72,1.08-3.45,1.23-3.91-1.28-.35-1.92-1.15-2.82-2.96-1.97-1.73,.82-3.33,2.05-2.29,4.35,1.08,2.36,2.64,4.26,5.64,3.97,1.16-.11,2.24-.17,2.78,1.14,.35,.44,.76,.8,1.26,1.06,1.2,.58,2.48,.88,3.81,.96,1.53-.12,2.89,.38,4.15,1.18,6.1,1.12,12.01,3.19,18.21,3.81,1.66-.23,3.36-1.01,4.93,.29,.3,.17,.62,.32,.95,.42,1.68,.32,3.48,.2,4.91,1.39,.88,.34,1.8,.43,2.73,.44,1.61-.2,2.97,.5,4.32,1.22,3.34,.41,6.5,1.6,9.82,2.2,3.79,.69,4.58,2.05,4.95,5.85,1.12,11.52,2.69,23,3.4,34.56,.63,10.43,4.23,20.77,1.12,31.34,5.04-1.04,5.25-1.36,3.64-5.93-.6-1.71-.49-3.48-.29-5.17Z"/><path class="an" d="M119.92,9.72c-.46-.02-.88-.47-1.35-.55-6.02-.99-11.72-3.6-17.95-3.58-4.09-.9-8.2-1.72-12.28-2.64-2.86-.34-5.71-.73-8.51-1.42-.95-.24-1.89-.48-2.83-.7-.09,.07-.19,.12-.28,.2-1.11,.03-2.23-.05-3.32,.1-1.3,.19-2.85,1.1-2.26,2.3,1.47,2.96-.9,1.72-1.91,2.12-1.77,.71-5.2-2.34-5.27,2.37,0,.6-1.24,.59-1.98,.62-1.57,.06-2.41,1.18-3.01,2.37-.36,.71-.26,2.17,.99,1.41,2.32-1.4,4.79,.2,7.03-.79,1.88,1.4,3.14-.7,4.74-.86,.31-.14,.61-.29,.89-.49,1.53-1.02,3.03-1.09,4.47,.16,.67,.55,1.24,1.22,2.01,1.65,.5,.23,1.03,.37,1.58,.42,1.92-.07,3.72,.36,5.39,1.29,3.43,.1,6.51,2.09,10.01,1.83,1.2-.01,2.41-.01,3.61-.01,3.71-.16,7.4-.25,10.44,2.44,1.95,1.06,3.9,2.1,6.22,2.03,1.17,.01,2.25,.33,3.43,.33,1.85,.05,3.07,.53,5.44,.76,2.04,1.5,4.32,2.11,6.83,1.92,1.24-.07,2.93,.92,3.98,.04-.04-1.67-1-3.47-2.92-2.79-3.15,1.12-4.39-1.16-5.77-3.27-.77-1.18-.2-1.87,.73-2.4,.8-.45,1.2-1.86,2.41-1.29,1.11,.52,.51,1.46,.25,2.25-.42,1.27,.29,1.52,1.34,2.03,3.97,1.94,5.02-1.77,7.12-3.45-6.54-.95-12.6-4.03-19.28-4.39Z"/><path class="af" d="M60.97,254.63c.27,.45,.49,.93,.7,1.42,1.22,2.27,2.45,4.53,3.66,6.8,.04,.04,.08,.07,.13,.11,.67-.49,.97-1.57,2.01-1.44,4.46,.55,9.1,.46,12.88,3.55,.71,.58,1.49,1.44,2.56,.53,.56-1.67-.03-3.21-.74-4.64-3.71-7.43-6.84-15.09-9.8-22.84-1.31-3.43-3.05-6.73-5.14-9.8-5.94,2.41-8.77,7.58-11.44,12.89,.81,4.17,3.73,7.53,4.45,11.74,.34,.52,.42,1.17,.72,1.68Z"/><path class="q" d="M200.72,27.05c-1.02-.18-2.04-.37-3.05-.61-.14,.23-.09,.48,.16,.74,1.61,.39,3.23,.78,4.84,1.16-.67-.4-1.31-.83-1.94-1.29Z"/><path class="q" d="M207.31,37.67c-.02,1.06,.09,2.1,.51,3.12-.18-1.04-.35-2.08-.51-3.12Z"/><path class="ab" d="M71.29,0s-.04,0-.06,0c-.65,.44-1.31,.88-1.95,1.32,1.1-.37,2.16-.89,3.26-1.25-.42-.03-.83-.06-1.26-.06Z"/><path class="h" d="M186.44,132.63c-2.14,.63-3.53,2.24-4.83,3.95,1.63-1.31,3.23-2.64,4.83-3.95Z"/><path class="ac" d="M69.11,191.16c.4-1.07,.47-2.2,.4-3.36-.15,1.12-.28,2.24-.4,3.36Z"/><path class="l" d="M195.64,25.9c-.77-.24-1.54-.5-2.32-.75l-.05,.53-.08,.18c1.25,1.73,2.94,.87,4.5,.76,.21-.01,.42-.03,.63-.04-.9-.2-1.79-.41-2.67-.68Z"/><path class="y" d="M192.56,111.73c-.08,.43-.16,.86-.25,1.29-5.22,2.74-9.34,6.93-13.9,10.52-10.85,8.54-21.64,17.13-32.45,25.72-.47,.37-.81,.89-1.21,1.35-1.27,2.64-3.4,4.57-5.45,6.54-1.72,1.65-2.61,3.58-2.5,5.97,.5,10.94-1.04,21.83-.79,32.78,.17,7.39,.03,7.39-6.89,7.54-2.98-.19-5.96-.38-8.94-.57-.31-.19-.63-.36-.96-.52-2.38-.3-4.77-.07-7.15-.15-.59,.02-1.11-.16-1.56-.55l-5.57-.31c-2.87-1.3-5.91-.33-8.85-.64-1.03-.02-2.07,.06-2.96-.61-2.56-.32-1.46-2.2-1.32-3.45,1.23-11.25,2.53-22.5,3.85-33.74,.9-7.64,1.85-15.27,2.78-22.91-.02-2.92,1.55-4.9,3.91-6.26,6.69-3.85,12.74-8.66,19.19-12.88,8-5.24,15.93-10.6,23.74-16.13,1.63-1.15,3.28-2.27,4.66-3.71,1.8-1.82,4.64-2.7,5.08-5.74,4.22-3.28,4.18-3.27,2.37-8.57-2.59-7.59-5.18-15.17-8-22.68-.34-1.57-1.06-3.08-.89-4.75-.28-2.6-2.32-1.36-3.46-1.36-14.6-.05-29.19,.05-43.79,.1-2.92,3.44-5.92,6.82-8.73,10.36-.85,1.08-.61,2.62-.61,3.98-.02,3.84,.01,7.69-.02,11.53,0,1.37,0,2.74-.92,3.9-12.52,0-25.03-.02-37.55,.03-1.58,0-2.04-.97-2.65-2.09-3.89-7.14-7.81-14.26-11.79-21.35-.71-1.27-1.16-2.75-2.44-3.65-1.74-1.06-1.95-3.11-2.96-4.64-2.59-3.92-3.81-8.59-6.89-12.29-.89-1.07-1.84-2.75-.92-4.5,.8-1.19,2.03-1.8,3.25-2.43,10.5-5.41,20.91-10.99,31.05-17.05,2.49-1.49,4.95-1.82,7.83-1.23,23.5,4.83,47.02,9.54,70.49,14.52,14.71,3.12,29.51,5.86,44.18,9.15,4.71,1.06,5.48,2.05,5.75,6.76,.64,11.18,2.48,22.24,3.28,33.4,.61,8.43,1.95,16.79,2.4,25.23,.08,1.57-.13,2.97-1.44,4.02Z"/><path class="ax" d="M150.03,63.81c4.16,8.8,6.64,18.2,9.72,27.38,.99,2.95-2.65,3.47-4.52,4.77-1.52,2.71-4.51,3.72-6.62,5.74-9.29,6.14-17.93,13.27-28.06,18.11-1.57,.28-2.71,1.23-3.73,2.38-.26,.24-.56,.41-.88,.55-1.01,.59-2.77,2.31-3.5,1.64-1.8-.41-2.41,.76-3.9-1.26-1.67-2.27,1.23-3.17,2.36-4.57,.63-.78,1.04-1.71,.18-2.65-1.13-1.24-3.5-1.18-3.66-2.6-.84-1.89,3.71-3.93,4.68-4.63,2.1-1.51,4.33-2.85,6.16-4.7,2.21-1.31,3.24-1.97,5.21-3.19,1.16-.57,1.58-1.03,2.41-1.55,.6-.38,.55-.37,1.71-1.18,.73-.76,1.79-1.45,2.56-2.18,2.71-2.76,5.79-5.06,9.04-7.11,2.3-1.46,3.3-3.25,2.46-5.93-.26-.83-.41-1.69-.63-2.53-2.63-9.89-2.18-8.84-10.25-8.75-1.64,.02-3.18-.45-4.62-1.25-2.63-1.3-5.48-1.52-8.32-1.59-3.06-.07-5.89-.94-8.56-2.32-1.34-.69-2.6-1.8-2.27-3.51,.34-1.78,1.97-2.03,3.49-2.21,3.41-.41,6.99,.69,10.24-1.17l24.68-.09c2.43,.54,3.91,2.07,4.62,4.42Z"/><path class="w" d="M153.72,217.97c-8.75-.76-17.49-1.52-26.24-2.28-10.58-.77-21.2-1.13-31.71-2.47-5.17-.66-10.35,.1-15.5-1.1-2.68-.63-4.49-1.13-4.38-4.23,.02-.58-.2-1.75-.62-1.49-3.51,2.16-4.21-1.26-5.93-2.75-.74-.65-1.05,.66-1.73,.78-.21,1.38-.45,2.76-.74,4.13-.26,3.5-.52,7-.75,10.5-.07,1.07-.41,1.95-.92,2.67,.18,.72,.52,1.41,1.09,2.02,.26,.07,.52,.14,.78,.21,6.45,1.52,13.07,1.78,19.62,2.51,2.12-.02,4.26-.22,6.12,1.11,.97,.29,1.96,.24,2.96,.16,11.65-.91,23.3-1.6,34.98-2.03,6.9-.26,13.86-.76,20.62-2.5h.68c-.36-2.03,1.79-3.27,1.65-5.23Z"/><path class="ag" d="M129.12,203.45c5.81-1.29,5.91-1.29,5.79-7.88-.21-11.42,1.31-22.8,.79-34.22-.05-1.15,.08-2.24,.99-3.08,2.72-2.52,4.95-5.56,8.07-7.66-.48,17.08-.96,34.15-1.45,51.23-.03,.97,.1,2.02-.9,2.67-1.24,.88-2.48,.84-3.73,.04-3.18-.41-6.45,.04-9.54-1.1Z"/><path class="s" d="M120.23,119.33c9.72-5.47,18.48-12.42,28.02-18.16,.82-.49,1.63-.64,2.41,.08-2.79,3.83-7.15,5.66-10.83,8.32-11.18,8.07-23.06,15.13-34.13,23.4-2.78,2.08-6.28,3.2-7.27,7.05-.83-3.65,.81-6.18,3.71-8.11,3.44-2.29,6.89-4.56,10.34-6.84,1.01-1.31,2.36-2.15,3.86-2.8l-.04-.04c1.23-1.07,2.4-2.23,3.92-2.91Z"/><path class="al" d="M93.13,200.12l2.74-.16c1.4,.78,2.91,.24,4.36,.41,.77,.09,1.86-.34,1.9,1.07-2.99-.5-6.33,1.33-9-1.32Z"/><path class="ak" d="M102.13,201.44c-1.81-1.65-4.43,.13-6.26-1.48,2.31,.02,4.63,.02,6.94,.06,.95,.02,2.06-.11,2.13,1.34-.94,.03-1.87,.05-2.81,.08Z"/><path class="aw" d="M119.9,202.28c.09,.2,.18,.4,.28,.61-2.8,.02-5.6,.05-8.4,.05-.78,0-1.48-.2-1.27-1.26,.35-.07,.7-.15,1.05-.22,2.7,1.12,5.64-.28,8.34,.83Z"/><path class="k" d="M138.67,204.56c1.24-.01,2.49-.03,3.73-.04-.48,2.42-2.41,1.09-3.7,1.44-.01-.47-.03-.93-.04-1.4Z"/><path class="aj" d="M192.56,111.73c1.09-4.81,.16-9.66-.42-14.33-1.1-8.72-1.67-17.47-2.62-26.19-.9-8.24-2.23-16.43-2.37-24.75-.03-1.69-1.28-2.47-2.96-2.8-13.81-2.72-27.61-5.46-41.39-8.29-14.39-2.96-28.76-6.04-43.14-9.06-11.24-2.36-22.49-4.64-33.71-7.07-1.97-.43-3.42,.41-4.88,1.27-10.77,6.37-21.71,12.43-32.94,17.95-.77,.38-1.45,.95-2.17,1.43-1.43,.44-1.34-.62-1.45-1.48,.58-4.24,4.66-4.32,7.32-5.82,11.37-6.41,22.91-12.5,34.38-18.73,.31-.17,.52-.52,.78-.79,1.63-1.21,3.49-2.02,5.27-2.98v-.05c.6-.61,1.32-.72,2.12-.53,1.45,.85,2.95,.79,4.44,1.54,.46,.06,1.13,.36,1.58,.51,2.12,.71,3.14,.71,5.4,1.32,4.2,.43,6.53,1.43,10.4,1.93,2.08,.36,2.77,.27,4.23,.44,4.13,.49,7.08,1.12,9.89,2.18,2.06,.25,3.81,1.68,5.97,1.58,1.28,1.18,6.97,1.43,8.99,1.81,2.23,.54,3.69,.79,6.68,1.24,2.06,.48,3.03,.63,4.56,.84,1.2,.24,2.41,.49,3.61,.73,1.12,.99,2.78,.25,3.91,1.21,5.86,.56,11.5,2.16,17.17,3.6,.69,.18,1.43,.14,2.15,.2,1.5,.26,3.15-.32,4.51,.77l-.03,.08c1.52,1.45,3.77,.06,5.32,1.37,.95,.07,1.89,.14,2.84,.21,1.09,1.05,2.78,.27,3.89,1.26,4.66,.35,9.15,1.52,13.63,2.78,1.61,.45,2.3,1.21,2.45,2.74,2.04,20.29,4.04,40.59,6.17,60.88,.34,3.26-.14,6.03-2.47,8.38-3,.56-4.23,3.86-7.1,4.63Z"/><path class="ar" d="M108.37,92.53c-.84,.84-1.11,1.91-1.28,3.04-.69,4.59-.73,4.94-5.43,4.53-12.73-1.11-25.61,.02-38.24-2.5-1.17-.23-2.22,.02-3.19,.68-4.27,.07-8.19-2.08-12.62-1.61-4.7,.49-8.84-5.64-7.31-10.14,1.08-3.18,.04-4.81-3.5-5.7-1.79-.45-2.64-1.81-2.68-3.58-.03-1.39-.15-2.74-.92-3.92-1.84-2.82-4.7-5.29-3.02-9.29,.11-.27-.37-1.11-.69-1.18-2.2-.47-2.95-3-5.1-3.48-1.18,2.7,.44,4.74,1.61,6.88,4.32,7.9,8.56,15.83,10.31,24.87-1.29,.42-2.1-.06-2.93-.1-3.08-.16-6.16-.52-9.25-.34,1.95,3.55,3.73,7.2,5.43,10.87,1.11,2.39,2.15,4.82,3.12,7.27,.05,.05,.09,.09,.14,.14,.1,.08,.2,.17,.31,.24,2.41,.12,4.58,1.16,6.92,1.64,1.98,.03,3.97,.06,5.95,.1,5.19-.13,10.39,0,15.59,.05,.89,0,1.84-.19,2.71,.04,2.97-.02,5.95-.06,8.91,.21,.48,.04,.96,.1,1.44,.16,6.31-.06,12.62-.2,18.93-.03,.43,.01,.83,.07,1.2,.17,1.39-.42,2.79-.78,4.2-1.09,.71-.15,1.36-.44,2.05-.64-.1,.03-.17,.05-.22,.06-.13,.04-.21,.06,0,0,.09-.03,.22-.07,.28-.1,.13-.06,.27-.13,.4-.19,.37-.18,.74-.38,1.1-.58,.15-.08,.31-.15,.47-.2,2.42-2.07,4.65-4.28,5.87-7.21-.01-.24,0-.48,.03-.72,.38-2.31,.39-5.07,.45-7.57,0-.38,.04-.77,.07-1.15-.42-.03-.79,.09-1.12,.37Z"/><path class="u" d="M123.65,68.3c-4.3-.93-8.85-.31-12.99-2.21-1.51-.69-3.23-1.48-2.93-3.25,.29-1.69,2.19-1.15,3.48-1.19,1.73-.06,3.46-.1,5.19,0,1.9,.11,3.41-.4,4.33-2.17-3.1-.02-6.22,.18-9.28-.16-1.81-.2-3.15,1.27-4.84,.83-5.44-1.4-6.53-.19-5.69,5.3,1.1,7.19,0,14.4-.48,21.59-.06,.92-.57,2.01-1.74,2.18-2.88,.43-5.5,2.27-8.57,1.56-1.99-1.15-3.99-.97-5.98,0h-2.98c-2.35-1.27-4.73-.48-6.76,.49-3.34,1.6-6.69,2.45-10.39,2.26-1.46-.08-3.04,.04-3.79,1.74,.03,1,.73,1.99,0,2.99,5.03,1.19,10.12,1.84,15.3,1.57,.24-.01,.48,.14,.72,.15,10.13,.43,20.27,.85,30.4,1.26,1.38,.06,1.98-.31,1.64-1.97-.49-2.43-.75-4.96,1.14-7.07,.02-.01,.03-.03,.05-.04,.2-2.22,.75-4.39,.78-6.38,0-.57,.2-1.07,.51-1.47,.23-2.21,.53-4.42,.62-6.64,.26-6.69,.2-6.6,7.04-6.74,2.78-.06,5.74,.82,8.29-1.1-.61-1.38-1.85-1.28-3.08-1.55Z"/><path class="aq" d="M8.28,60.86c.06,.11,.11,.22,.16,.33,.11,.21,.21,.42,.31,.64,.78,1.55,1.52,3.12,2.24,4.69,.41,.66,.87,1.28,1.45,1.84,3.47,3.65,7.4,5.11,12.29,2.89,2.48-1.13,3.71-2.53,1.89-5.14-.83-2.21-1.98-4.32-2.24-6.72-2.25-4.48-4.5-8.97-6.75-13.45-1.45,1.53-.64,3.54-1.09,5.28-.38,1.49-.94,2.88-2.54,3.34-1.47,.42-2.12-.83-2.95-1.74-2.09-2.29-4.2-2.11-6.77,.49,1.34,2.52,2.69,5.02,3.99,7.55Z"/><path class="d" d="M13.1,36.73c-.72-1.06-.68-2.82-2.45-2.85-.22,.12-.45,.23-.68,.34-3.11,2.93-6.22,5.87-9.32,8.8-.08,.17-.16,.34-.24,.51,.02-.04-.17,.44-.17,.45-.11,.34-.18,.64-.25,.93,.02,.05,.03,.09,.05,.14,.03,.05,.06,.08,.08,.13,1.33,2.78,2.76,5.51,4.21,8.23,1.96,.03,3.88-3.25,5.81-.2,.98,1.54,1.95,3.11,3.91,2.61,2.24-.57,3.33-2.48,3.53-4.71,.16-1.71,.04-3.44,.04-5.17-1.18-3.23-2.6-6.34-4.54-9.2Z"/><path class="v" d="M90.96,87.84c-.04-5.85-.05-11.69-.12-17.54-.02-1.44,.3-2.61,1.34-3.7,2.47-2.6,5.47-4.72,7.07-8.1,.36-.77,1.24-.68,1.99-.44-1.18,1.19-1.73,2.55-1.73,4.29,.02,6.83-.18,13.65-.12,20.48,.05,5.23,.18,5.24-5.11,5.19-1.11-.01-2.22-.12-3.33-.18Z"/><path class="ar" d="M81.17,90.78c-3.46,.73-7.08,.76-10.02,3.33-1.21,1.05-3.13,.31-4.73,.41-2.08,.14-4.24-.42-6.19,.75-1.26-.24-3.97,.8-1.85-2.3,2.03-2.97-1.8-1.55-2.23-2.97,.83-1.19,2.18-.89,3.18-.5,5.11,2.02,10.07,1.76,15.28,.12,1.9-.6,4.85-1.85,6.55,1.15Z"/><path class="i" d="M24.5,38.4c.48,.49,.97,.99,1.45,1.48,2.34,5.95,6.06,11.17,8.9,16.85,.65,1.3,1.8,2.42,1.68,4.05-1.46,.24-2.3-.15-2.54-1.83-.26-1.83-1.08-3.18-2.91-1.5-.77-4.54,.2-9.69-5.88-11.35-.2-.06-.52-.43-.49-.49,1.3-2.45-1.25-4.78-.22-7.21Z"/><path class="ar" d="M90.13,90.79c-1.99,0-3.99,0-5.98,0,1.99-1.99,3.99-2.48,5.98,0Z"/><path class="am" d="M72.25,10.1c-1.29,1.82-3.09,2.73-5.27,2.98,0-.51,0-1.02,.02-1.54,1.93,.16,3.13-2.32,5.25-1.44Z"/><path class="u" d="M150.03,63.81c-1.12-1.92-3.18-2.83-4.62-4.42,1.03-.02,2.06-.05,3.08-.07,1.05,1.31,1.57,2.81,1.53,4.49Z"/><path class="ai" d="M197.05,123.67c-.25,1.32-1.12,1.71-2.35,1.56,.01-1.31-.74-1.9-1.91-2.36-1.63-.64-.98-1.69-.2-2.59,.75-.86,1.71-1.33,2.26,.06,.52,1.29,2.93,1.27,2.19,3.33Z"/><path class="q" d="M211,60.94c-.06-.65-.14-1.3-.2-1.94-.2-1.39-.53-2.77-1.08-4.13-.06,5.05,.61,10.03,1.27,15.01-.03-2.98,.22-5.98,.02-8.94Z"/><path class="q" d="M209.66,50.81c-.09-.53-.17-1.07-.27-1.6-.15-.81-.31-1.61-.46-2.42,.07,2.71-.42,5.48,.79,8.07-.17-1.34-.1-2.69-.05-4.05Z"/><path class="av" d="M92.3,226.85c9.36-.7,18.71-1.46,28.07-2.08,5.8-.39,11.63,.1,17.45-.76,4.47-.66,9.04-.56,13.57-.8-2.44,2.17-5.93,1.81-8.6,3.61-1.12,.76-1.92,1.5-2.32,2.68-.29,.85,.26,1.45,1.02,1.71,1.05,.35,1.17-.19,1.15-1.15-.02-.8,.18-1.94,1.32-1.83,1.17,.12,2.14,.87,2.14,2.2,.02,2.35,.97,3.72,3.41,4.04,1.81,.24,1.94,1.64,1.78,3.12-15.41,1.37-30.89,.32-46.29,1.18-6.34,.35-12.81,.74-19.1,1.95-1.08,1.01-1.02,2.36-.49,3.42,2.8,5.57,4.78,11.54,8.12,16.85,1.12,2.27,3.36,3.97,3.46,6.76,.13,2.53,1.34,4.59,2.84,6.53,2.04,2.71,3.2,5.86,4.54,8.93,1.84,2.15,3.67,.88,5.49-.02,2-.55,4.2-.36,6.02-1.61,12.11-2.97,24.58-3.74,36.76-6.28,3.82,.57,7.26-2.44,11.16-1.18,.38,.2,.72,.45,1.03,.75-.13,.64-.37,1.28-1.09,1.33-6.42,.44-12.43,3.37-18.96,3.1-.25-.01-.61-.09-.73,.03-2.87,2.99-5.95,2.98-9.81,1.72-1.64-.53-3.26,2.7-3.46,4.43-.19,1.66,2.02,2.93,3.8,3.41,1.28,.34,2.8,.38,4.07,.04,3.74-1.02,7.48-1.25,11.29-.63-7.2,1.47-14.38,3.04-21.6,4.39-9.31,1.74-18.65,3.28-27.97,4.98-1.52,.28-2.92,.42-4.28-.45-3.2-3.2-3.74-7.72-5.54-11.59-2.99-6.44-6.35-12.78-7.94-19.8-2.48-7.88-6.8-15.01-9.43-22.8-1.67-4.94-4.57-9.29-6.1-14.24,.42-.13,.83-.27,1.25-.4,4.53-1.41,9.12-2.37,13.9-2.2,1.35,.05,2.69,0,4.04,0,2,.21,4.11-.53,6,.68Z"/><path class="g" d="M163.97,274.63c-3.8-.24-7.22,2.19-11.08,1.56-1.31-.94-1.67-2.41-2.18-3.81-2.71-7.49-5.97-14.78-8.68-22.27-.89-2.45-2.43-3.63-5.05-3.42-11.53,.93-23.11,.3-34.63,1.33-2.73,.24-5.47,.14-8.21,.16-1.76,.02-3.49,.06-5,1.14-3.51-.4-2.91-3.81-4.15-5.85-.51-.84-.26-2.13-.82-3.1,0-2.02,1.51-1.5,2.66-1.59,17.32-1.32,34.68-1.41,52.04-1.64,1.83-.02,3.61-.16,5.46-.74,2.34-.74,4.88-.57,6.97,1.19,.93,5.25,3.6,9.88,5.24,14.88,1.49,4.54,3.52,8.91,5.3,13.35,.58,1.73,1.33,3.38,2.07,5.05,.52,1.18,1.07,2.5,.06,3.77Z"/><path class="t" d="M163.97,274.63c.44-3.22-2.39-5.64-2.13-8.81,2.18,2.62,3.42,5.55,3,9.03-.29-.07-.58-.15-.87-.22Z"/><path class="m" d="M65.79,263.68c3.44,6.44,6.61,13.03,9.66,19.66,2.55-.73,5.33,.58,7.86-.57,.44-.2,1.31,0,1.71,.34,2.78,2.38,6.55,3.89,6.7,8.49,.09,2.74,1.51,4.86,4.41,5.59-2.53-6.2-4.84-12.49-7.65-18.55-1.98-4.27-3.1-8.92-5.83-12.84-2.34-1.96-4.51-3.83-7.93-4.24-1.99-.24-4.4-.02-5.94-.8-3.13-1.59-3.35-.22-3.43,2.1,.15,.27,.3,.55,.44,.82Z"/><path class="e" d="M173.15,30.86c-1.87-.08-4.06,1.09-5.32-1.37,1.83,.24,4.04-1,5.32,1.37Z"/><path class="ay" d="M167.86,29.41c-1.54-.04-3.19,.57-4.51-.77,1.7-.91,3.37-1.61,4.51,.77Z"/><path class="ad" d="M193.18,25.86c1.5,.25,3,.51,4.5,.76,.04,.19,.09,.37,.14,.55-1.19,.2-2.38,.41-3.57,.6-2.06,.32-1.6-.77-1.07-1.91Z"/><path class="f" d="M179.88,32.33c-1.42-.05-3.18,.97-3.89-1.26,1.43,.02,3.15-.88,3.89,1.26Z"/><path class="ae" d="M110.3,17.43c-3.66,.76-6.8-1.9-10.4-1.55-.49-.35-.51-.76-.19-1.23,3.79-.04,7.85-1.16,10.59,2.79Z"/><path class="r" d="M74.33,10.12c-.7-.02-1.39-.05-2.09-.07,1.74-2.1,3.13-2.13,5.2-.11-.98,1.08-2.05,.6-3.11,.18Z"/><path class="au" d="M15,74.98c2.31,4.46,5.08,8.66,7.61,12.99,.65,1.11,1.27,2.23,1.88,3.36,4.19,1.14,8.72-.4,12.89,1.78-.09-6.06-2.25-11.06-4.69-15.7-1.98-3.77-2.55-8.36-6.07-11.3,.27,1.47,.82,3.39-1.1,3.77-2.52,.49-5.1,3.01-7.52,1.2-1.78-1.33-3.71-1.82-5.56-2.72l.44,2.28c.68,1.46,1.37,2.92,2.11,4.35Z"/><path class="as" d="M150.66,101.26c-.8-.03-1.6-.05-2.41-.08,2.09-2.06,4.34-3.88,6.97-5.22,1.32,1.77-.6,2.24-1.35,3-.9,.92-2.12,1.54-3.21,2.29Z"/><path class="j" d="M119.9,202.28c-2.77-.35-5.67,.61-8.33-.83,2.78,.26,5.68-.68,8.33,.83Z"/><path class="o" d="M142.82,83.27c-1.05-3.15-1.87-6.39-2.6-9.63-.5-2.23-1.77-3.04-3.94-3.05-3.2-.02-6.44,.38-9.55-.73-4.1,0-8.22,.14-12.31-.04-2.88-.13-4.06,.98-4.14,3.83-.19,6.19-.55,12.38-.84,18.57h.04c.19-2.23,.75-4.41,.78-6.41,.02-1.4,1.13-2.44,2.5-2.5,.1,0,.2,0,.3,.01,.34-.05,.68-.05,1.02,.01,.48,.08,.95,.16,1.43,.23l.24,.03c.21,.03,.43,.05,.64,.07,.92,.1,1.84,.19,2.76,.28,1.16,.12,2.31,.25,3.46,.41,.89,0,1.79,.04,2.68,.13,2.16,.44,2.3,2.25,2.66,3.91,.63,2.84,1.16,5.72,2.5,8.34,3.16-2.72,6.27-5.47,9.92-7.56,2.23-1.28,3.36-3.08,2.43-5.89Z"/><path class="y" d="M88.51,249.26c-.01-1.85,1.07-2.24,2.68-2.17,8.95,.39,17.85-1.23,26.81-.74,6.84,.37,13.61-1.13,20.46-.81,2.18,.1,3.31,.66,4.06,2.83,3.22,9.36,7.82,18.2,10.38,27.82-12.36,2.7-24.97,3.92-37.41,6.2-2.35,1.37-5.48-.35-7.59,1.93-1.49,.18-3,.5-4.33-.57-1.45-3.01-2.91-6.02-4.36-9.03-.96-2.28-1.96-4.54-3.02-6.77-.23-2.59-2.62-4.15-3.14-6.59-1.57-4.01-4.21-7.61-4.54-12.09Z"/><path class="aa" d="M121.11,290.61c-2.02-.71-2.74-2.89-3.13-4.85-.36-1.83,1.39-2.02,2.83-1.99,3.05,.05,3.99,2.79,4.47,4.73,.4,1.61-2.14,1.78-4.17,2.12Z"/><path class="p" d="M88.51,249.26c.91,4.26,4.12,7.64,4.54,12.09-2.1-.77-2.28-2.92-2.79-4.53-1.77-5.59-6.58-10.05-6.08-16.45,1.44,2.97,2.89,5.93,4.33,8.9Z"/><path class="a`" d="M108.01,283.64c2.16-2.42,4.91-1.26,7.48-1.26-1.54,2.13-3.95,.89-5.87,1.53-.6,.3-1.14,.25-1.6-.27Z"/><path class="n" d="M108.01,283.64c.53,.09,1.07,.18,1.6,.27-2.07,1.93-4.1,2.45-6.05-.17,1.48-.03,2.96-.07,4.45-.1Z"/><path class="ao" d="M96.19,267.94c1.67,1.96,2.84,4.14,3.02,6.77-1.92-1.85-3.01-4.07-3.02-6.77Z"/></g></g></g></svg>